<svg id="Capa_1" data-name="Capa 1" xmlns="http://www.w3.org/2000/svg" viewBox="0 0 555 231.86"><defs><style>.cls-1{fill:#1d1d1b;}</style></defs><title>SVG desktop mercury</title><path class="cls-1" d="M39.93,173.3H36.8v4.06h-2v-10H40.3v1.67H36.8v2.55h3.13Z"/><path class="cls-1" d="M47.92,167.41v6.89a3.24,3.24,0,0,1-.85,2.38,3.31,3.31,0,0,1-2.41.82,3.38,3.38,0,0,1-2.45-.83,3.27,3.27,0,0,1-.84-2.42v-6.84h2v6.85a2,2,0,0,0,.28,1.21,1.17,1.17,0,0,0,1,.36,1.15,1.15,0,0,0,1-.36,2,2,0,0,0,.27-1.18v-6.88Z"/><path class="cls-1" d="M54.59,173.06H51.46v2.64h3.7v1.66H49.45v-10h5.7v1.67H51.46v2.36h3.13Z"/><path class="cls-1" d="M63.28,177.36h-2l-2.94-6.53v6.53h-2v-10h2l3,6.54v-6.54h2Z"/><path class="cls-1" d="M71.14,169.08H68.68v8.28h-2v-8.28H64.24v-1.67h6.9Z"/><path class="cls-1" d="M77.44,173.06H74.3v2.64H78v1.66H72.29v-10H78v1.67H74.3v2.36h3.14Z"/><path class="cls-1" d="M83.37,174.75a1.25,1.25,0,0,0-.31-.92,3.58,3.58,0,0,0-1.13-.64,5.31,5.31,0,0,1-2.16-1.33,2.71,2.71,0,0,1-.65-1.8,2.49,2.49,0,0,1,.89-2,3.68,3.68,0,0,1,3.9-.38,2.63,2.63,0,0,1,1.1,1.09,3.24,3.24,0,0,1,.39,1.6h-2a1.61,1.61,0,0,0-.3-1.06,1,1,0,0,0-.86-.37,1.07,1.07,0,0,0-.82.31,1.16,1.16,0,0,0-.29.84,1.06,1.06,0,0,0,.32.74,3.88,3.88,0,0,0,1.17.69,5,5,0,0,1,2.11,1.29,2.88,2.88,0,0,1,.66,2,2.58,2.58,0,0,1-.82,2,3.29,3.29,0,0,1-2.25.73,3.8,3.8,0,0,1-1.76-.4A3,3,0,0,1,79.32,176a3.27,3.27,0,0,1-.45-1.74h2a1.93,1.93,0,0,0,.33,1.25,1.39,1.39,0,0,0,1.1.39C83,175.87,83.37,175.5,83.37,174.75Z"/><path class="cls-1" d="M86.8,170.79a1,1,0,0,1,.31-.77,1.13,1.13,0,0,1,.81-.3,1.16,1.16,0,0,1,.81.3,1,1,0,0,1,.32.77,1,1,0,0,1-.33.77,1.16,1.16,0,0,1-.8.29,1.12,1.12,0,0,1-.8-.3A1,1,0,0,1,86.8,170.79Zm0,5.59a1,1,0,0,1,.31-.77,1.13,1.13,0,0,1,.81-.3,1.16,1.16,0,0,1,.81.3,1,1,0,0,1,.32.77,1,1,0,0,1-.33.77,1.16,1.16,0,0,1-.8.29,1.12,1.12,0,0,1-.8-.3A1,1,0,0,1,86.8,176.38Z"/><path class="cls-1" d="M94.73,166.73l.68.5a3.73,3.73,0,0,0-.56,1.85V170H93.66v-.79a3.45,3.45,0,0,1,.3-1.39A3.32,3.32,0,0,1,94.73,166.73Z"/><path class="cls-1" d="M101.38,173H98v4.39H96.77v-10H102v1.07H98v3.41h3.36Z"/><path class="cls-1" d="M106.2,171.1a3.12,3.12,0,0,0-.55,0,1.31,1.31,0,0,0-1.29,1v5.29h-1.21V170h1.17l0,.75a1.51,1.51,0,0,1,1.38-.89.94.94,0,0,1,.47.1Z"/><path class="cls-1" d="M109.92,177.5a2.69,2.69,0,0,1-2.12-.82,3.59,3.59,0,0,1-.75-2.42v-.9a4.17,4.17,0,0,1,.72-2.59,2.38,2.38,0,0,1,2-.94,2.29,2.29,0,0,1,1.94.83,4.23,4.23,0,0,1,.66,2.57v.8h-4.13v.17a2.7,2.7,0,0,0,.45,1.73,1.58,1.58,0,0,0,1.29.54,2.16,2.16,0,0,0,.94-.2,2.47,2.47,0,0,0,.76-.64l.63.76A2.76,2.76,0,0,1,109.92,177.5Zm-.14-6.63a1.25,1.25,0,0,0-1.11.52,3,3,0,0,0-.41,1.6h2.91v-.17a2.8,2.8,0,0,0-.38-1.5A1.17,1.17,0,0,0,109.78,170.87Z"/><path class="cls-1" d="M113.58,173.33a4.4,4.4,0,0,1,.64-2.6,2.09,2.09,0,0,1,1.83-.9,1.92,1.92,0,0,1,1.66.86v-3.83h1.21v10.5h-1.11l-.06-.79a1.92,1.92,0,0,1-1.71.93,2.13,2.13,0,0,1-1.8-.89,4.34,4.34,0,0,1-.66-2.52Zm1.21.69a3.46,3.46,0,0,0,.37,1.82,1.3,1.3,0,0,0,1.2.59,1.45,1.45,0,0,0,1.35-.91v-3.73a1.46,1.46,0,0,0-1.34-.89,1.33,1.33,0,0,0-1.21.59,3.47,3.47,0,0,0-.37,1.79Z"/><path class="cls-1" d="M120.52,173.33a4.47,4.47,0,0,1,.64-2.6,2.12,2.12,0,0,1,1.84-.9,1.91,1.91,0,0,1,1.65.86v-3.83h1.21v10.5h-1.11l-.06-.79a1.89,1.89,0,0,1-1.7.93,2.1,2.1,0,0,1-1.8-.89,4.27,4.27,0,0,1-.67-2.52Zm1.21.69a3.56,3.56,0,0,0,.37,1.82,1.32,1.32,0,0,0,1.2.59,1.44,1.44,0,0,0,1.35-.91v-3.73a1.46,1.46,0,0,0-1.34-.89,1.3,1.3,0,0,0-1.2.59,3.45,3.45,0,0,0-.38,1.79Z"/><path class="cls-1" d="M129.12,168a.81.81,0,0,1-.17.52.66.66,0,0,1-.52.2.63.63,0,0,1-.51-.2.76.76,0,0,1-.17-.52.75.75,0,0,1,.17-.51.59.59,0,0,1,.51-.22.62.62,0,0,1,.52.22A.8.8,0,0,1,129.12,168Zm-.09,9.36h-1.21V170H129Z"/><path class="cls-1" d="M133.57,177.5a2.71,2.71,0,0,1-2.12-.82,3.59,3.59,0,0,1-.75-2.42v-.9a4.17,4.17,0,0,1,.72-2.59,2.39,2.39,0,0,1,2-.94,2.32,2.32,0,0,1,1.94.83,4.31,4.31,0,0,1,.65,2.57v.8H131.9v.17a2.7,2.7,0,0,0,.45,1.73,1.58,1.58,0,0,0,1.29.54,2.13,2.13,0,0,0,.94-.2,2.36,2.36,0,0,0,.76-.64l.63.76A2.73,2.73,0,0,1,133.57,177.5Zm-.13-6.63a1.26,1.26,0,0,0-1.12.52,3,3,0,0,0-.41,1.6h2.91v-.17a2.8,2.8,0,0,0-.38-1.5A1.15,1.15,0,0,0,133.44,170.87Z"/><path class="cls-1" d="M142.47,167.41l2.6,8.12,2.6-8.12h1.61v10H148v-3.87l.12-3.89-2.61,7.76h-1L142,169.63l.12,3.86v3.87h-1.25v-10Z"/><path class="cls-1" d="M153.91,177.5a2.69,2.69,0,0,1-2.12-.82,3.59,3.59,0,0,1-.75-2.42v-.9a4.17,4.17,0,0,1,.72-2.59,2.38,2.38,0,0,1,2-.94,2.31,2.31,0,0,1,1.94.83,4.23,4.23,0,0,1,.66,2.57v.8h-4.13v.17a2.7,2.7,0,0,0,.45,1.73,1.58,1.58,0,0,0,1.29.54,2.16,2.16,0,0,0,.94-.2,2.47,2.47,0,0,0,.76-.64l.63.76A2.76,2.76,0,0,1,153.91,177.5Zm-.14-6.63a1.25,1.25,0,0,0-1.11.52,3,3,0,0,0-.41,1.6h2.91v-.17a2.8,2.8,0,0,0-.38-1.5A1.17,1.17,0,0,0,153.77,170.87Z"/><path class="cls-1" d="M160.87,171.1a3,3,0,0,0-.54,0,1.33,1.33,0,0,0-1.3,1v5.29h-1.21V170H159l0,.75a1.5,1.5,0,0,1,1.37-.89,1,1,0,0,1,.48.1Z"/><path class="cls-1" d="M164.52,176.47a1.27,1.27,0,0,0,1-.38,1.55,1.55,0,0,0,.4-1.06H167a2.53,2.53,0,0,1-.76,1.77,2.36,2.36,0,0,1-1.74.7,2.59,2.59,0,0,1-2.1-.86,4,4,0,0,1-.72-2.58v-.81a3.92,3.92,0,0,1,.72-2.55,2.56,2.56,0,0,1,2.09-.87,2.32,2.32,0,0,1,1.8.72,2.9,2.9,0,0,1,.71,2h-1.14a2,2,0,0,0-.39-1.23,1.24,1.24,0,0,0-1-.41,1.37,1.37,0,0,0-1.19.53,3,3,0,0,0-.41,1.74v.94a3.28,3.28,0,0,0,.39,1.85A1.4,1.4,0,0,0,164.52,176.47Z"/><path class="cls-1" d="M172.19,176.71a2.07,2.07,0,0,1-1.76.79,1.79,1.79,0,0,1-1.52-.69,3.48,3.48,0,0,1-.52-2V170h1.21v4.73c0,1.15.34,1.73,1,1.73a1.5,1.5,0,0,0,1.51-1V170h1.21v7.39h-1.14Z"/><path class="cls-1" d="M178.24,171.1a3.12,3.12,0,0,0-.55,0,1.33,1.33,0,0,0-1.3,1v5.29h-1.21V170h1.18l0,.75a1.5,1.5,0,0,1,1.37-.89,1,1,0,0,1,.48.1Z"/><path class="cls-1" d="M181.59,175.35l1.34-5.38h1.29l-2.42,8.44a3.27,3.27,0,0,1-.77,1.44,1.55,1.55,0,0,1-1.14.5,2.6,2.6,0,0,1-.63-.11v-1l.27,0a1.22,1.22,0,0,0,.82-.25,1.77,1.77,0,0,0,.49-.86l.23-.83L178.9,170h1.32Z"/><path class="cls-1" d="M184.75,176.7a.8.8,0,0,1,.19-.55.78.78,0,0,1,.59-.22.72.72,0,0,1,.79.77.78.78,0,0,1-.2.53.8.8,0,0,1-.59.21.69.69,0,0,1-.78-.74Z"/><path class="cls-1" d="M196.37,174.76H193l-.77,2.6H191l3.2-10h1.08l3.21,10h-1.29Zm-3-1.07h2.72l-1.36-4.53Z"/><path class="cls-1" d="M204.69,174l-.65.74v2.64h-1.21v-10.5H204v6.29l2.31-3.18h1.45l-2.35,3.09,2.65,4.3h-1.4Z"/><path class="cls-1" d="M210.54,168a.81.81,0,0,1-.17.52.78.78,0,0,1-1,0,.81.81,0,0,1-.17-.52.8.8,0,0,1,.17-.51.62.62,0,0,1,.52-.22.6.6,0,0,1,.51.22A.76.76,0,0,1,210.54,168Zm-.1,9.36h-1.21V170h1.21Z"/><path class="cls-1" d="M213.48,170l0,.8a2.15,2.15,0,0,1,1.8-.94c1.3,0,2,.87,2,2.62v4.91H216.1V172.5a2,2,0,0,0-.29-1.23,1,1,0,0,0-.87-.37,1.23,1.23,0,0,0-.81.3,2.35,2.35,0,0,0-.58.79v5.37h-1.21V170Z"/><path class="cls-1" d="M218.86,173.33a4.47,4.47,0,0,1,.64-2.6,2.12,2.12,0,0,1,1.84-.9,1.9,1.9,0,0,1,1.65.86v-3.83h1.21v10.5h-1.1l-.07-.79a1.89,1.89,0,0,1-1.7.93,2.13,2.13,0,0,1-1.8-.89,4.34,4.34,0,0,1-.67-2.52Zm1.21.69a3.56,3.56,0,0,0,.37,1.82,1.33,1.33,0,0,0,1.21.59,1.43,1.43,0,0,0,1.34-.91v-3.73a1.45,1.45,0,0,0-1.34-.89,1.32,1.32,0,0,0-1.2.59,3.45,3.45,0,0,0-.38,1.79Z"/><path class="cls-1" d="M229,173.32a3.88,3.88,0,0,1,.78-2.55,2.55,2.55,0,0,1,2.07-.94,2.58,2.58,0,0,1,2.06.92,3.78,3.78,0,0,1,.81,2.49V174a3.84,3.84,0,0,1-.78,2.54,2.78,2.78,0,0,1-4.14,0,3.69,3.69,0,0,1-.8-2.46Zm1.21.7a3.16,3.16,0,0,0,.44,1.8,1.4,1.4,0,0,0,1.21.65c1.07,0,1.61-.77,1.65-2.31v-.84a3.14,3.14,0,0,0-.45-1.79,1.4,1.4,0,0,0-1.21-.66,1.39,1.39,0,0,0-1.2.66,3.12,3.12,0,0,0-.44,1.79Z"/><path class="cls-1" d="M236.83,177.36v-6.42h-1v-1h1v-.86a2.64,2.64,0,0,1,.57-1.76,2,2,0,0,1,1.55-.63,2.71,2.71,0,0,1,.74.11l-.07,1a2.38,2.38,0,0,0-.55-.06c-.69,0-1,.49-1,1.48v.7h1.26v1H238v6.42Z"/><path class="cls-1" d="M245.07,170l0,.68a2.19,2.19,0,0,1,1.78-.82,1.74,1.74,0,0,1,1.73,1.07,2.22,2.22,0,0,1,1.95-1.07c1.36,0,2.05.85,2.09,2.55v5h-1.21V172.5a2,2,0,0,0-.28-1.2,1.11,1.11,0,0,0-1-.4,1.07,1.07,0,0,0-.89.43,1.93,1.93,0,0,0-.4,1.08v5h-1.22v-4.92c0-1-.43-1.54-1.25-1.54a1.32,1.32,0,0,0-1.29.92v5.54h-1.2V170Z"/><path class="cls-1" d="M258.27,177.36a2.75,2.75,0,0,1-.15-.8,1.92,1.92,0,0,1-1.64.94,2,2,0,0,1-2.14-2.15,2.24,2.24,0,0,1,.77-1.79,3.12,3.12,0,0,1,2.1-.68h.89v-.79a1.25,1.25,0,0,0-.3-.94,1.22,1.22,0,0,0-.89-.28,1.24,1.24,0,0,0-.89.32,1.09,1.09,0,0,0-.34.83h-1.21a2,2,0,0,1,.33-1.09,2.35,2.35,0,0,1,.9-.81,2.79,2.79,0,0,1,1.27-.29,2.42,2.42,0,0,1,1.72.56,2.21,2.21,0,0,1,.61,1.65v3.73a4.38,4.38,0,0,0,.23,1.48v.11Zm-1.61-1a1.7,1.7,0,0,0,1.44-.86v-1.77h-.69a2.29,2.29,0,0,0-1.36.39,1.24,1.24,0,0,0-.5,1,1.37,1.37,0,0,0,.26.92A1.11,1.11,0,0,0,256.66,176.4Z"/><path class="cls-1" d="M260.93,173.33a4.49,4.49,0,0,1,.63-2.61,2.09,2.09,0,0,1,1.84-.89,1.91,1.91,0,0,1,1.72,1l.06-.82h1.09v7.46a2.92,2.92,0,0,1-.7,2.11,2.6,2.6,0,0,1-2,.74,3.18,3.18,0,0,1-1.23-.28,2.41,2.41,0,0,1-1-.66l.49-.84a2.29,2.29,0,0,0,1.66.74c1,0,1.52-.55,1.55-1.64v-1a1.9,1.9,0,0,1-1.67.87,2.12,2.12,0,0,1-1.79-.86,4.27,4.27,0,0,1-.67-2.49Zm1.21.69a3.46,3.46,0,0,0,.37,1.82,1.3,1.3,0,0,0,1.2.59,1.44,1.44,0,0,0,1.35-.93v-3.69a1.47,1.47,0,0,0-1.34-.91,1.3,1.3,0,0,0-1.2.59,3.45,3.45,0,0,0-.38,1.79Z"/><path class="cls-1" d="M269.47,168a.81.81,0,0,1-.17.52.66.66,0,0,1-.52.2.63.63,0,0,1-.51-.2.76.76,0,0,1-.17-.52.75.75,0,0,1,.17-.51.59.59,0,0,1,.51-.22.62.62,0,0,1,.52.22A.8.8,0,0,1,269.47,168Zm-.1,9.36h-1.21V170h1.21Z"/><path class="cls-1" d="M273.85,176.47a1.27,1.27,0,0,0,1-.38,1.6,1.6,0,0,0,.4-1.06h1.14a2.53,2.53,0,0,1-.76,1.77,2.38,2.38,0,0,1-1.74.7,2.59,2.59,0,0,1-2.1-.86,4,4,0,0,1-.72-2.58v-.81a3.92,3.92,0,0,1,.72-2.55,2.55,2.55,0,0,1,2.09-.87,2.34,2.34,0,0,1,1.8.72,3,3,0,0,1,.71,2h-1.14a2,2,0,0,0-.4-1.23,1.22,1.22,0,0,0-1-.41,1.4,1.4,0,0,0-1.2.53,3,3,0,0,0-.4,1.74v.94a3.38,3.38,0,0,0,.38,1.85A1.41,1.41,0,0,0,273.85,176.47Z"/><path class="cls-1" d="M277.82,170.21l-.67-.49a3.78,3.78,0,0,0,.55-1.86v-1h1.2v.93a3.47,3.47,0,0,1-.31,1.33A3,3,0,0,1,277.82,170.21Z"/><path class="cls-1" d="M283.57,173.32a11.26,11.26,0,0,1,.49-3.37,9.08,9.08,0,0,1,1.37-2.77,4.69,4.69,0,0,1,1-1.05l.24.84a5.67,5.67,0,0,0-1.35,2.36,12.07,12.07,0,0,0-.57,3.52v.56a12.34,12.34,0,0,0,.68,4.25,6,6,0,0,0,1.25,2.14l-.24.78a5.24,5.24,0,0,1-1.28-1.4A10.36,10.36,0,0,1,283.57,173.32Z"/><path class="cls-1" d="M288.16,177.36v-10H291a2.83,2.83,0,0,1,2,.66,2.64,2.64,0,0,1,.69,2,2.19,2.19,0,0,1-.35,1.23,2.3,2.3,0,0,1-.94.83,1.91,1.91,0,0,1,1.08.84,2.79,2.79,0,0,1,.4,1.53,2.91,2.91,0,0,1-.73,2.11,2.77,2.77,0,0,1-2.1.76Zm1.25-5.7H291a1.37,1.37,0,0,0,1.05-.44,1.71,1.71,0,0,0,.4-1.17,1.62,1.62,0,0,0-.37-1.19,1.47,1.47,0,0,0-1.1-.38h-1.59Zm0,1.05v3.58h1.71a1.46,1.46,0,0,0,1.13-.47,1.89,1.89,0,0,0,.41-1.31c0-1.2-.5-1.8-1.51-1.8Z"/><path class="cls-1" d="M296.93,177.36h-1.21v-10.5h1.21Z"/><path class="cls-1" d="M302.6,176.71a2,2,0,0,1-1.75.79,1.77,1.77,0,0,1-1.52-.69,3.4,3.4,0,0,1-.52-2V170H300v4.73c0,1.15.35,1.73,1,1.73a1.51,1.51,0,0,0,1.52-1V170h1.21v7.39h-1.15Z"/><path class="cls-1" d="M306.74,170l0,.68a2.18,2.18,0,0,1,1.78-.82,1.75,1.75,0,0,1,1.73,1.07,2.21,2.21,0,0,1,1.94-1.07c1.36,0,2.06.85,2.09,2.55v5h-1.2V172.5a2,2,0,0,0-.29-1.2,1.1,1.1,0,0,0-1-.4,1.08,1.08,0,0,0-.89.43,1.92,1.92,0,0,0-.39,1.08v5h-1.22v-4.92c0-1-.43-1.54-1.25-1.54a1.32,1.32,0,0,0-1.29.92v5.54h-1.2V170Z"/><path class="cls-1" d="M318.78,177.5a2.69,2.69,0,0,1-2.12-.82,3.59,3.59,0,0,1-.75-2.42v-.9a4.17,4.17,0,0,1,.72-2.59,2.38,2.38,0,0,1,2-.94,2.31,2.31,0,0,1,1.94.83,4.23,4.23,0,0,1,.66,2.57v.8h-4.13v.17a2.7,2.7,0,0,0,.45,1.73,1.58,1.58,0,0,0,1.29.54,2.16,2.16,0,0,0,.94-.2,2.47,2.47,0,0,0,.76-.64l.63.76A2.76,2.76,0,0,1,318.78,177.5Zm-.14-6.63a1.25,1.25,0,0,0-1.11.52,2.93,2.93,0,0,0-.41,1.6H320v-.17a2.8,2.8,0,0,0-.38-1.5A1.17,1.17,0,0,0,318.64,170.87Z"/><path class="cls-1" d="M325.29,173.39a10.57,10.57,0,0,1-1.36,5.4,5.64,5.64,0,0,1-1.54,1.79l-.24-.78a5.76,5.76,0,0,0,1.39-2.52,12.85,12.85,0,0,0,.54-3.72v-.25a12,12,0,0,0-.85-4.65,5.83,5.83,0,0,0-1.08-1.76l.24-.77a5.2,5.2,0,0,1,1.46,1.66A10.63,10.63,0,0,1,325.29,173.39Z"/><path class="cls-1" d="M327.16,179.35l-.72-.5a3.27,3.27,0,0,0,.67-1.84v-1.14h1.24v1a3.05,3.05,0,0,1-.34,1.38A3.34,3.34,0,0,1,327.16,179.35Z"/><path class="cls-1" d="M334,166.73l.69.5a3.63,3.63,0,0,0-.56,1.85V170h-1.2v-.79a3.45,3.45,0,0,1,.3-1.39A3.32,3.32,0,0,1,334,166.73Z"/><path class="cls-1" d="M340.61,173h-3.37v4.39H336v-10h5.18v1.07h-3.93v3.41h3.37Z"/><path class="cls-1" d="M345.42,171.1a3,3,0,0,0-.54,0,1.32,1.32,0,0,0-1.3,1v5.29h-1.21V170h1.17l0,.75a1.5,1.5,0,0,1,1.37-.89,1,1,0,0,1,.48.1Z"/><path class="cls-1" d="M349.14,177.5a2.71,2.71,0,0,1-2.12-.82,3.59,3.59,0,0,1-.75-2.42v-.9a4.17,4.17,0,0,1,.72-2.59,2.4,2.4,0,0,1,2-.94,2.32,2.32,0,0,1,1.94.83,4.24,4.24,0,0,1,.65,2.57v.8h-4.12v.17a2.7,2.7,0,0,0,.44,1.73,1.58,1.58,0,0,0,1.29.54,2.13,2.13,0,0,0,.94-.2,2.36,2.36,0,0,0,.76-.64l.63.76A2.73,2.73,0,0,1,349.14,177.5Zm-.13-6.63a1.26,1.26,0,0,0-1.12.52,3,3,0,0,0-.41,1.6h2.91v-.17a2.72,2.72,0,0,0-.38-1.5A1.15,1.15,0,0,0,349,170.87Z"/><path class="cls-1" d="M352.8,173.33a4.4,4.4,0,0,1,.64-2.6,2.12,2.12,0,0,1,1.84-.9,1.91,1.91,0,0,1,1.65.86v-3.83h1.21v10.5H357l-.06-.79a1.9,1.9,0,0,1-1.7.93,2.1,2.1,0,0,1-1.8-.89,4.27,4.27,0,0,1-.67-2.52ZM354,174a3.46,3.46,0,0,0,.37,1.82,1.32,1.32,0,0,0,1.2.59,1.45,1.45,0,0,0,1.35-.91v-3.73a1.46,1.46,0,0,0-1.34-.89,1.3,1.3,0,0,0-1.2.59,3.36,3.36,0,0,0-.38,1.79Z"/><path class="cls-1" d="M359.75,173.33a4.47,4.47,0,0,1,.63-2.6,2.12,2.12,0,0,1,1.84-.9,1.89,1.89,0,0,1,1.65.86v-3.83h1.21v10.5H364l-.06-.79a1.92,1.92,0,0,1-1.71.93,2.13,2.13,0,0,1-1.8-.89,4.27,4.27,0,0,1-.66-2.52ZM361,174a3.58,3.58,0,0,0,.36,1.82,1.33,1.33,0,0,0,1.21.59,1.43,1.43,0,0,0,1.34-.91v-3.73a1.45,1.45,0,0,0-1.34-.89,1.32,1.32,0,0,0-1.2.59,3.47,3.47,0,0,0-.37,1.79Z"/><path class="cls-1" d="M368.35,168a.77.77,0,0,1-.18.52.64.64,0,0,1-.52.2.66.66,0,0,1-.51-.2A.81.81,0,0,1,367,168a.8.8,0,0,1,.17-.51.61.61,0,0,1,.51-.22.62.62,0,0,1,.52.22A.76.76,0,0,1,368.35,168Zm-.1,9.36H367V170h1.21Z"/><path class="cls-1" d="M372.8,177.5a2.68,2.68,0,0,1-2.12-.82,3.54,3.54,0,0,1-.76-2.42v-.9a4.11,4.11,0,0,1,.73-2.59,2.38,2.38,0,0,1,2-.94,2.32,2.32,0,0,1,1.94.83,4.23,4.23,0,0,1,.66,2.57v.8h-4.13v.17a2.76,2.76,0,0,0,.44,1.73,1.58,1.58,0,0,0,1.29.54,2.13,2.13,0,0,0,.94-.2,2.5,2.5,0,0,0,.77-.64l.63.76A2.76,2.76,0,0,1,372.8,177.5Zm-.14-6.63a1.28,1.28,0,0,0-1.12.52,3.12,3.12,0,0,0-.41,1.6h2.92v-.17a2.9,2.9,0,0,0-.38-1.5A1.17,1.17,0,0,0,372.66,170.87Z"/><path class="cls-1" d="M381.7,167.41l2.59,8.12,2.6-8.12h1.61v10h-1.25v-3.87l.12-3.89-2.6,7.76h-1l-2.59-7.73.11,3.86v3.87h-1.25v-10Z"/><path class="cls-1" d="M393.13,177.5a2.71,2.71,0,0,1-2.12-.82,3.59,3.59,0,0,1-.75-2.42v-.9a4.17,4.17,0,0,1,.72-2.59,2.39,2.39,0,0,1,2-.94,2.32,2.32,0,0,1,1.94.83,4.31,4.31,0,0,1,.65,2.57v.8h-4.13v.17a2.7,2.7,0,0,0,.45,1.73,1.58,1.58,0,0,0,1.29.54,2.13,2.13,0,0,0,.94-.2,2.36,2.36,0,0,0,.76-.64l.63.76A2.73,2.73,0,0,1,393.13,177.5Zm-.13-6.63a1.26,1.26,0,0,0-1.12.52,3,3,0,0,0-.41,1.6h2.91v-.17a2.72,2.72,0,0,0-.38-1.5A1.15,1.15,0,0,0,393,170.87Z"/><path class="cls-1" d="M400.1,171.1a3.12,3.12,0,0,0-.55,0,1.33,1.33,0,0,0-1.3,1v5.29H397V170h1.18l0,.75a1.5,1.5,0,0,1,1.37-.89,1,1,0,0,1,.48.1Z"/><path class="cls-1" d="M403.74,176.47a1.31,1.31,0,0,0,1-.38,1.55,1.55,0,0,0,.39-1.06h1.14a2.52,2.52,0,0,1-.75,1.77,2.4,2.4,0,0,1-1.75.7,2.59,2.59,0,0,1-2.09-.86,4,4,0,0,1-.72-2.58v-.81a3.92,3.92,0,0,1,.71-2.55,2.57,2.57,0,0,1,2.1-.87,2.35,2.35,0,0,1,1.8.72,2.9,2.9,0,0,1,.7,2H405.1a2,2,0,0,0-.39-1.23,1.23,1.23,0,0,0-1-.41,1.4,1.4,0,0,0-1.2.53,3,3,0,0,0-.4,1.74v.94a3.29,3.29,0,0,0,.38,1.85A1.41,1.41,0,0,0,403.74,176.47Z"/><path class="cls-1" d="M411.41,176.71a2.07,2.07,0,0,1-1.76.79,1.77,1.77,0,0,1-1.51-.69,3.4,3.4,0,0,1-.52-2V170h1.2v4.73c0,1.15.35,1.73,1,1.73a1.52,1.52,0,0,0,1.52-1V170h1.21v7.39h-1.15Z"/><path class="cls-1" d="M417.46,171.1a3.12,3.12,0,0,0-.55,0,1.31,1.31,0,0,0-1.29,1v5.29h-1.21V170h1.17l0,.75a1.52,1.52,0,0,1,1.38-.89.94.94,0,0,1,.47.1Z"/><path class="cls-1" d="M420.81,175.35l1.35-5.38h1.28L421,178.41a3.27,3.27,0,0,1-.77,1.44,1.53,1.53,0,0,1-1.13.5,2.45,2.45,0,0,1-.63-.11v-1l.26,0a1.25,1.25,0,0,0,.83-.25,1.69,1.69,0,0,0,.48-.86l.24-.83L418.12,170h1.32Z"/><path class="cls-1" d="M424.66,176.7a.8.8,0,0,1,.19-.55.9.9,0,0,1,1.18,0,.81.81,0,0,1,.2.55.83.83,0,0,1-1.38.53A.77.77,0,0,1,424.66,176.7Zm0-6a.78.78,0,0,1,.19-.54.74.74,0,0,1,.59-.22.76.76,0,0,1,.59.22.78.78,0,0,1,.2.54.76.76,0,0,1-.2.53.79.79,0,0,1-.59.21.77.77,0,0,1-.59-.21A.75.75,0,0,1,424.67,170.66Z"/><path class="cls-1" d="M436.81,168.48h-2.62v8.88h-1.25v-8.88h-2.61v-1.07h6.48Z"/><path class="cls-1" d="M439.32,170.73a2.12,2.12,0,0,1,1.76-.9c1.31,0,2,.87,2,2.62v4.91h-1.2V172.5a1.94,1.94,0,0,0-.3-1.23,1,1,0,0,0-.87-.37,1.23,1.23,0,0,0-.81.3,2.2,2.2,0,0,0-.57.79v5.37h-1.21v-10.5h1.21Z"/><path class="cls-1" d="M447.51,177.5a2.71,2.71,0,0,1-2.12-.82,3.59,3.59,0,0,1-.75-2.42v-.9a4.17,4.17,0,0,1,.72-2.59,2.39,2.39,0,0,1,2-.94,2.32,2.32,0,0,1,1.94.83,4.31,4.31,0,0,1,.65,2.57v.8h-4.13v.17a2.7,2.7,0,0,0,.45,1.73,1.58,1.58,0,0,0,1.29.54,2.13,2.13,0,0,0,.94-.2,2.36,2.36,0,0,0,.76-.64l.63.76A2.73,2.73,0,0,1,447.51,177.5Zm-.13-6.63a1.26,1.26,0,0,0-1.12.52,3,3,0,0,0-.41,1.6h2.91v-.17a2.72,2.72,0,0,0-.38-1.5A1.15,1.15,0,0,0,447.38,170.87Z"/><path class="cls-1" d="M454.38,173.33a4.47,4.47,0,0,1,.63-2.6,2.12,2.12,0,0,1,1.84-.9,1.89,1.89,0,0,1,1.65.86v-3.83h1.21v10.5h-1.1l-.06-.79a1.92,1.92,0,0,1-1.71.93,2.13,2.13,0,0,1-1.8-.89,4.27,4.27,0,0,1-.66-2.52Zm1.21.69a3.58,3.58,0,0,0,.36,1.82,1.33,1.33,0,0,0,1.21.59,1.43,1.43,0,0,0,1.34-.91v-3.73a1.45,1.45,0,0,0-1.34-.89,1.32,1.32,0,0,0-1.2.59,3.47,3.47,0,0,0-.37,1.79Z"/><path class="cls-1" d="M464.22,177.5a2.69,2.69,0,0,1-2.12-.82,3.59,3.59,0,0,1-.75-2.42v-.9a4.17,4.17,0,0,1,.72-2.59,2.38,2.38,0,0,1,2-.94,2.29,2.29,0,0,1,1.94.83,4.23,4.23,0,0,1,.66,2.57v.8h-4.13v.17a2.7,2.7,0,0,0,.45,1.73,1.58,1.58,0,0,0,1.29.54,2.16,2.16,0,0,0,.94-.2,2.47,2.47,0,0,0,.76-.64l.63.76A2.76,2.76,0,0,1,464.22,177.5Zm-.14-6.63a1.25,1.25,0,0,0-1.11.52,3,3,0,0,0-.41,1.6h2.91v-.17a2.8,2.8,0,0,0-.38-1.5A1.17,1.17,0,0,0,464.08,170.87Z"/><path class="cls-1" d="M468.66,177.36v-6.42h-1v-1h1v-.86a2.74,2.74,0,0,1,.57-1.76,2,2,0,0,1,1.56-.63,2.69,2.69,0,0,1,.73.11l-.06,1a2.53,2.53,0,0,0-.56-.06c-.68,0-1,.49-1,1.48v.7h1.27v1h-1.27v6.42Z"/><path class="cls-1" d="M474,168a.81.81,0,0,1-.17.52.66.66,0,0,1-.52.2.63.63,0,0,1-.51-.2.76.76,0,0,1-.17-.52.75.75,0,0,1,.17-.51.59.59,0,0,1,.51-.22.62.62,0,0,1,.52.22A.8.8,0,0,1,474,168Zm-.1,9.36h-1.21V170h1.21Z"/><path class="cls-1" d="M476.91,170l0,.8a2.15,2.15,0,0,1,1.8-.94c1.31,0,2,.87,2,2.62v4.91h-1.2V172.5a1.94,1.94,0,0,0-.3-1.23,1,1,0,0,0-.87-.37,1.23,1.23,0,0,0-.81.3,2.2,2.2,0,0,0-.57.79v5.37h-1.21V170Z"/><path class="cls-1" d="M483.94,168a.81.81,0,0,1-.17.52.66.66,0,0,1-.52.2.63.63,0,0,1-.51-.2.76.76,0,0,1-.17-.52.75.75,0,0,1,.17-.51.59.59,0,0,1,.51-.22.62.62,0,0,1,.52.22A.8.8,0,0,1,483.94,168Zm-.09,9.36h-1.21V170h1.21Z"/><path class="cls-1" d="M487.33,168.18V170h1.12v1h-1.12v4.6a1.19,1.19,0,0,0,.15.66.53.53,0,0,0,.49.23,1.36,1.36,0,0,0,.48-.09v1a2.64,2.64,0,0,1-.84.14,1.28,1.28,0,0,1-1.1-.51,2.43,2.43,0,0,1-.37-1.45v-4.6H485v-1h1.13v-1.79Z"/><path class="cls-1" d="M491.28,168a.76.76,0,0,1-.17.52.66.66,0,0,1-.52.2.63.63,0,0,1-.51-.2.81.81,0,0,1-.17-.52.8.8,0,0,1,.17-.51.59.59,0,0,1,.51-.22.62.62,0,0,1,.52.22A.8.8,0,0,1,491.28,168Zm-.09,9.36H490V170h1.21Z"/><path class="cls-1" d="M495.19,175.52l1.4-5.55h1.23l-2.2,7.39h-.9L492.5,170h1.23Z"/><path class="cls-1" d="M501.63,177.5a2.71,2.71,0,0,1-2.12-.82,3.59,3.59,0,0,1-.75-2.42v-.9a4.17,4.17,0,0,1,.72-2.59,2.39,2.39,0,0,1,2-.94,2.32,2.32,0,0,1,1.94.83,4.31,4.31,0,0,1,.65,2.57v.8H500v.17a2.7,2.7,0,0,0,.45,1.73,1.58,1.58,0,0,0,1.29.54,2.13,2.13,0,0,0,.94-.2,2.36,2.36,0,0,0,.76-.64l.63.76A2.73,2.73,0,0,1,501.63,177.5Zm-.13-6.63a1.26,1.26,0,0,0-1.12.52A3,3,0,0,0,500,173h2.91v-.17a2.72,2.72,0,0,0-.38-1.5A1.15,1.15,0,0,0,501.5,170.87Z"/><path class="cls-1" d="M40.25,192a4.44,4.44,0,0,1-.62,2.6,2,2,0,0,1-1.8.88,1.93,1.93,0,0,1-1.77-1l-.06.87H34.9v-10.5h1.21v3.92a1.89,1.89,0,0,1,1.7-.95,2.11,2.11,0,0,1,1.83.86,4.58,4.58,0,0,1,.61,2.6Zm-1.2-.69a3.59,3.59,0,0,0-.36-1.87,1.33,1.33,0,0,0-1.19-.56,1.47,1.47,0,0,0-1.39,1v3.52a1.48,1.48,0,0,0,1.4,1,1.27,1.27,0,0,0,1.18-.58,3.41,3.41,0,0,0,.36-1.78Z"/><path class="cls-1" d="M43.2,186a.81.81,0,0,1-.17.52.66.66,0,0,1-.52.2.63.63,0,0,1-.51-.2.76.76,0,0,1-.17-.52.75.75,0,0,1,.17-.51.59.59,0,0,1,.51-.22.62.62,0,0,1,.52.22A.8.8,0,0,1,43.2,186Zm-.09,9.36H41.9V188h1.21Z"/><path class="cls-1" d="M44.75,191.32a3.88,3.88,0,0,1,.78-2.55,2.77,2.77,0,0,1,4.14,0,3.77,3.77,0,0,1,.8,2.49V192a3.89,3.89,0,0,1-.77,2.54,2.78,2.78,0,0,1-4.14,0,3.75,3.75,0,0,1-.81-2.46ZM46,192a3.15,3.15,0,0,0,.45,1.8,1.4,1.4,0,0,0,1.21.65c1.06,0,1.61-.77,1.64-2.31v-.84a3.14,3.14,0,0,0-.45-1.79,1.42,1.42,0,0,0-2.4,0,3.12,3.12,0,0,0-.45,1.79Z"/><path class="cls-1" d="M51.79,191.33a4.49,4.49,0,0,1,.63-2.61,2.09,2.09,0,0,1,1.84-.89,1.91,1.91,0,0,1,1.72,1L56,188h1.09v7.46a2.92,2.92,0,0,1-.7,2.11,2.6,2.6,0,0,1-2,.74,3.18,3.18,0,0,1-1.23-.28,2.54,2.54,0,0,1-1-.66l.49-.84a2.29,2.29,0,0,0,1.66.74c1,0,1.53-.55,1.55-1.64v-1a1.9,1.9,0,0,1-1.67.87,2.12,2.12,0,0,1-1.79-.86,4.27,4.27,0,0,1-.67-2.49ZM53,192a3.56,3.56,0,0,0,.37,1.82,1.3,1.3,0,0,0,1.2.59,1.44,1.44,0,0,0,1.35-.93v-3.69a1.47,1.47,0,0,0-1.34-.91,1.32,1.32,0,0,0-1.2.59,3.45,3.45,0,0,0-.38,1.79Z"/><path class="cls-1" d="M62,189.1a3.21,3.21,0,0,0-.55,0,1.33,1.33,0,0,0-1.3,1v5.29H58.93V188h1.18l0,.75a1.5,1.5,0,0,1,1.37-.89,1,1,0,0,1,.48.1Z"/><path class="cls-1" d="M66.72,195.36a2.75,2.75,0,0,1-.15-.8,1.92,1.92,0,0,1-1.64.94,2,2,0,0,1-2.14-2.15,2.24,2.24,0,0,1,.77-1.79,3.12,3.12,0,0,1,2.1-.68h.89v-.79a1.25,1.25,0,0,0-.3-.94,1.22,1.22,0,0,0-.89-.28,1.26,1.26,0,0,0-.89.32,1.09,1.09,0,0,0-.34.83H62.92a2,2,0,0,1,.33-1.09,2.35,2.35,0,0,1,.9-.81,2.79,2.79,0,0,1,1.27-.29,2.42,2.42,0,0,1,1.72.56,2.21,2.21,0,0,1,.61,1.65v3.73a4.38,4.38,0,0,0,.23,1.48v.11Zm-1.61-1a1.7,1.7,0,0,0,1.44-.86v-1.77h-.69a2.29,2.29,0,0,0-1.36.39,1.24,1.24,0,0,0-.5,1,1.37,1.37,0,0,0,.26.92A1.11,1.11,0,0,0,65.11,194.4Z"/><path class="cls-1" d="M75,192a4.38,4.38,0,0,1-.64,2.62,2.08,2.08,0,0,1-1.78.86,2,2,0,0,1-1.72-.84v3.55h-1.2V188h1.09l.06.82a2,2,0,0,1,1.75-1,2.09,2.09,0,0,1,1.82.85,4.52,4.52,0,0,1,.62,2.53Zm-1.21-.69a3.37,3.37,0,0,0-.38-1.83,1.34,1.34,0,0,0-1.23-.6,1.42,1.42,0,0,0-1.32.87v3.85a1.44,1.44,0,0,0,1.33.85,1.35,1.35,0,0,0,1.21-.59,3.36,3.36,0,0,0,.39-1.81Z"/><path class="cls-1" d="M77.74,188.73a2.12,2.12,0,0,1,1.76-.9c1.31,0,2,.87,2,2.62v4.91h-1.2V190.5a1.94,1.94,0,0,0-.3-1.23,1,1,0,0,0-.87-.37,1.23,1.23,0,0,0-.81.3,2.2,2.2,0,0,0-.57.79v5.37H76.53v-10.5h1.21Z"/><path class="cls-1" d="M85.31,193.35,86.66,188h1.28l-2.42,8.44a3.27,3.27,0,0,1-.77,1.44,1.53,1.53,0,0,1-1.14.5,2.46,2.46,0,0,1-.62-.11v-1l.26,0a1.25,1.25,0,0,0,.83-.25,1.77,1.77,0,0,0,.48-.86l.24-.83L82.62,188h1.32Z"/><path class="cls-1" d="M89.38,188.21l-.68-.49a3.68,3.68,0,0,0,.55-1.86v-1h1.2v.93a3.65,3.65,0,0,1-.3,1.33A3.15,3.15,0,0,1,89.38,188.21Z"/><path class="cls-1" d="M95.13,191.32a11.58,11.58,0,0,1,.48-3.37A9.1,9.1,0,0,1,97,185.18a4.49,4.49,0,0,1,1-1.05l.23.84a5.77,5.77,0,0,0-1.34,2.36,12.06,12.06,0,0,0-.58,3.52v.56a12.35,12.35,0,0,0,.67,4.25,6.17,6.17,0,0,0,1.25,2.14l-.23.78a5.08,5.08,0,0,1-1.28-1.4A10.36,10.36,0,0,1,95.13,191.32Z"/><path class="cls-1" d="M104.36,192.76H101l-.77,2.6H98.93l3.21-10h1.07l3.22,10h-1.29Zm-3-1.07H104l-1.36-4.53Z"/><path class="cls-1" d="M108.91,195.36H107.7v-10.5h1.21Z"/><path class="cls-1" d="M112.22,186a.81.81,0,0,1-.17.52.78.78,0,0,1-1,0,.81.81,0,0,1-.17-.52.8.8,0,0,1,.17-.51.62.62,0,0,1,.52-.22.6.6,0,0,1,.51.22A.76.76,0,0,1,112.22,186Zm-.1,9.36h-1.21V188h1.21Z"/><path class="cls-1" d="M117.83,195.36a2.68,2.68,0,0,1-.16-.8,1.91,1.91,0,0,1-1.64.94,2.15,2.15,0,0,1-1.57-.56,2.19,2.19,0,0,1-.56-1.59,2.23,2.23,0,0,1,.76-1.79,3.12,3.12,0,0,1,2.1-.68h.89v-.79a1.29,1.29,0,0,0-.29-.94,1.26,1.26,0,0,0-.9-.28,1.28,1.28,0,0,0-.89.32,1.09,1.09,0,0,0-.34.83H114a1.94,1.94,0,0,1,.34-1.09,2.35,2.35,0,0,1,.9-.81,2.78,2.78,0,0,1,1.26-.29,2.43,2.43,0,0,1,1.73.56,2.25,2.25,0,0,1,.6,1.65v3.73a4.63,4.63,0,0,0,.24,1.48v.11Zm-1.61-1a1.55,1.55,0,0,0,.84-.25,1.5,1.5,0,0,0,.59-.61v-1.77H117a2.27,2.27,0,0,0-1.36.39,1.21,1.21,0,0,0-.5,1,1.37,1.37,0,0,0,.25.92A1.14,1.14,0,0,0,116.22,194.4Z"/><path class="cls-1" d="M121.87,188l0,.8a2.15,2.15,0,0,1,1.8-.94c1.31,0,2,.87,2,2.62v4.91h-1.2V190.5a2,2,0,0,0-.29-1.23,1.08,1.08,0,0,0-.88-.37,1.23,1.23,0,0,0-.81.3,2.33,2.33,0,0,0-.57.79v5.37h-1.21V188Z"/><path class="cls-1" d="M128.62,194.33h3.57v1h-5v-.93l3.39-5.42h-3.36v-1h4.78v.89Z"/><path class="cls-1" d="M137.45,195.36a2.75,2.75,0,0,1-.15-.8,1.92,1.92,0,0,1-1.64.94,2,2,0,0,1-2.14-2.15,2.24,2.24,0,0,1,.77-1.79,3.12,3.12,0,0,1,2.1-.68h.89v-.79a1.25,1.25,0,0,0-.3-.94,1.22,1.22,0,0,0-.89-.28,1.26,1.26,0,0,0-.89.32,1.09,1.09,0,0,0-.34.83h-1.21a2,2,0,0,1,.33-1.09,2.43,2.43,0,0,1,.9-.81,2.79,2.79,0,0,1,1.27-.29,2.42,2.42,0,0,1,1.72.56,2.21,2.21,0,0,1,.61,1.65v3.73a4.38,4.38,0,0,0,.23,1.48v.11Zm-1.61-1a1.7,1.7,0,0,0,1.44-.86v-1.77h-.69a2.31,2.31,0,0,0-1.36.39,1.24,1.24,0,0,0-.5,1,1.37,1.37,0,0,0,.26.92A1.11,1.11,0,0,0,135.84,194.4Z"/><path class="cls-1" d="M148.5,190.76H145v3.53h4.1v1.07h-5.35v-10H149v1.07h-4v3.21h3.52Z"/><path class="cls-1" d="M150.13,191.33a4.4,4.4,0,0,1,.64-2.6,2.11,2.11,0,0,1,1.83-.9,1.92,1.92,0,0,1,1.66.86v-3.83h1.21v10.5h-1.11l-.06-.79a1.91,1.91,0,0,1-1.7.93,2.14,2.14,0,0,1-1.81-.89,4.34,4.34,0,0,1-.66-2.52Zm1.21.69a3.46,3.46,0,0,0,.37,1.82,1.3,1.3,0,0,0,1.2.59,1.45,1.45,0,0,0,1.35-.91v-3.73a1.46,1.46,0,0,0-1.34-.89,1.33,1.33,0,0,0-1.21.59,3.47,3.47,0,0,0-.37,1.79Z"/><path class="cls-1" d="M158.73,186a.81.81,0,0,1-.17.52.67.67,0,0,1-.52.2.63.63,0,0,1-.51-.2.77.77,0,0,1-.18-.52.76.76,0,0,1,.18-.51.7.7,0,0,1,1,0A.76.76,0,0,1,158.73,186Zm-.1,9.36h-1.21V188h1.21Z"/><path class="cls-1" d="M162.12,186.18V188h1.11v1h-1.11v4.6a1.3,1.3,0,0,0,.14.66.54.54,0,0,0,.49.23,1.41,1.41,0,0,0,.49-.09v1a2.74,2.74,0,0,1-.84.14,1.28,1.28,0,0,1-1.1-.51,2.43,2.43,0,0,1-.37-1.45v-4.6h-1.13v-1h1.13v-1.79Z"/><path class="cls-1" d="M164.28,191.32a3.88,3.88,0,0,1,.78-2.55,2.55,2.55,0,0,1,2.07-.94,2.59,2.59,0,0,1,2.07.92,3.77,3.77,0,0,1,.8,2.49V192a3.84,3.84,0,0,1-.78,2.54,2.78,2.78,0,0,1-4.14,0,3.8,3.8,0,0,1-.8-2.46Zm1.21.7a3.15,3.15,0,0,0,.45,1.8,1.4,1.4,0,0,0,1.2.65q1.61,0,1.65-2.31v-.84a3.14,3.14,0,0,0-.45-1.79,1.39,1.39,0,0,0-1.21-.66,1.37,1.37,0,0,0-1.19.66,3.12,3.12,0,0,0-.45,1.79Z"/><path class="cls-1" d="M174.61,189.1a3,3,0,0,0-.54,0,1.33,1.33,0,0,0-1.3,1v5.29h-1.21V188h1.18l0,.75a1.5,1.5,0,0,1,1.37-.89,1,1,0,0,1,.48.1Z"/><path class="cls-1" d="M177.22,186a.81.81,0,0,1-.17.52.67.67,0,0,1-.52.2.63.63,0,0,1-.51-.2.76.76,0,0,1-.17-.52.75.75,0,0,1,.17-.51.7.7,0,0,1,1,0A.76.76,0,0,1,177.22,186Zm-.1,9.36h-1.21V188h1.21Z"/><path class="cls-1" d="M182.83,195.36a3.05,3.05,0,0,1-.16-.8,1.9,1.9,0,0,1-1.64.94,2.15,2.15,0,0,1-1.57-.56,2.19,2.19,0,0,1-.56-1.59,2.24,2.24,0,0,1,.77-1.79,3.12,3.12,0,0,1,2.1-.68h.88v-.79a1.25,1.25,0,0,0-.29-.94,1.26,1.26,0,0,0-.9-.28,1.24,1.24,0,0,0-.88.32,1.09,1.09,0,0,0-.35.83H179a2,2,0,0,1,.34-1.09,2.35,2.35,0,0,1,.9-.81,2.79,2.79,0,0,1,1.27-.29,2.42,2.42,0,0,1,1.72.56,2.21,2.21,0,0,1,.61,1.65v3.73a4.38,4.38,0,0,0,.23,1.48v.11Zm-1.61-1a1.58,1.58,0,0,0,.85-.25,1.54,1.54,0,0,0,.58-.61v-1.77H182a2.29,2.29,0,0,0-1.36.39,1.24,1.24,0,0,0-.5,1,1.42,1.42,0,0,0,.25.92A1.15,1.15,0,0,0,181.22,194.4Z"/><path class="cls-1" d="M187,195.36h-1.21v-10.5H187Z"/><path class="cls-1" d="M191.54,191.39a10.57,10.57,0,0,1-1.37,5.4,5.51,5.51,0,0,1-1.53,1.79l-.24-.78a5.76,5.76,0,0,0,1.39-2.52,12.85,12.85,0,0,0,.54-3.72v-.25a12,12,0,0,0-.85-4.65,6,6,0,0,0-1.08-1.76l.24-.77a5.32,5.32,0,0,1,1.46,1.66A10.63,10.63,0,0,1,191.54,191.39Z"/><path class="cls-1" d="M193.41,197.35l-.72-.5a3.27,3.27,0,0,0,.67-1.84v-1.14h1.24v1a3.19,3.19,0,0,1-.34,1.38A3.34,3.34,0,0,1,193.41,197.35Z"/><path class="cls-1" d="M199.88,195.36v-6.42h-1v-1h1v-.86a2.64,2.64,0,0,1,.57-1.76,2,2,0,0,1,1.56-.63,2.69,2.69,0,0,1,.73.11l-.06,1a2.53,2.53,0,0,0-.56-.06c-.69,0-1,.49-1,1.48v.7h1.27v1h-1.27v6.42Z"/><path class="cls-1" d="M206.83,189.1a3.1,3.1,0,0,0-.54,0,1.32,1.32,0,0,0-1.3,1v5.29h-1.21V188H205l0,.75a1.52,1.52,0,0,1,1.38-.89,1,1,0,0,1,.48.1Z"/><path class="cls-1" d="M210.55,195.5a2.69,2.69,0,0,1-2.12-.82,3.59,3.59,0,0,1-.75-2.42v-.9a4.17,4.17,0,0,1,.72-2.59,2.38,2.38,0,0,1,2-.94,2.33,2.33,0,0,1,2,.83,4.31,4.31,0,0,1,.65,2.57v.8h-4.13v.17a2.7,2.7,0,0,0,.45,1.73,1.58,1.58,0,0,0,1.29.54,2.13,2.13,0,0,0,.94-.2,2.47,2.47,0,0,0,.76-.64l.63.76A2.73,2.73,0,0,1,210.55,195.5Zm-.14-6.63a1.25,1.25,0,0,0-1.11.52,3,3,0,0,0-.41,1.6h2.91v-.17a2.8,2.8,0,0,0-.38-1.5A1.16,1.16,0,0,0,210.41,188.87Z"/><path class="cls-1" d="M214.21,191.33a4.4,4.4,0,0,1,.64-2.6,2.11,2.11,0,0,1,1.83-.9,1.92,1.92,0,0,1,1.66.86v-3.83h1.21v10.5h-1.11l-.06-.79a1.91,1.91,0,0,1-1.7.93,2.14,2.14,0,0,1-1.81-.89,4.34,4.34,0,0,1-.66-2.52Zm1.21.69a3.46,3.46,0,0,0,.37,1.82,1.3,1.3,0,0,0,1.2.59,1.45,1.45,0,0,0,1.35-.91v-3.73a1.46,1.46,0,0,0-1.34-.89,1.33,1.33,0,0,0-1.21.59,3.47,3.47,0,0,0-.37,1.79Z"/><path class="cls-1" d="M221.15,191.33a4.47,4.47,0,0,1,.64-2.6,2.12,2.12,0,0,1,1.84-.9,1.9,1.9,0,0,1,1.65.86v-3.83h1.21v10.5h-1.1l-.07-.79a1.89,1.89,0,0,1-1.7.93,2.13,2.13,0,0,1-1.8-.89,4.34,4.34,0,0,1-.67-2.52Zm1.21.69a3.56,3.56,0,0,0,.37,1.82,1.33,1.33,0,0,0,1.21.59,1.43,1.43,0,0,0,1.34-.91v-3.73a1.45,1.45,0,0,0-1.34-.89,1.32,1.32,0,0,0-1.2.59,3.45,3.45,0,0,0-.38,1.79Z"/><path class="cls-1" d="M229.75,186a.76.76,0,0,1-.17.52.64.64,0,0,1-.52.2.63.63,0,0,1-.51-.2.81.81,0,0,1-.17-.52.8.8,0,0,1,.17-.51.59.59,0,0,1,.51-.22.62.62,0,0,1,.52.22A.75.75,0,0,1,229.75,186Zm-.09,9.36h-1.21V188h1.21Z"/><path class="cls-1" d="M234.2,195.5a2.71,2.71,0,0,1-2.12-.82,3.59,3.59,0,0,1-.75-2.42v-.9a4.17,4.17,0,0,1,.72-2.59,2.4,2.4,0,0,1,2-.94,2.32,2.32,0,0,1,1.94.83,4.24,4.24,0,0,1,.65,2.57v.8h-4.12v.17a2.76,2.76,0,0,0,.44,1.73,1.58,1.58,0,0,0,1.29.54,2.13,2.13,0,0,0,.94-.2,2.36,2.36,0,0,0,.76-.64l.63.76A2.73,2.73,0,0,1,234.2,195.5Zm-.13-6.63a1.27,1.27,0,0,0-1.12.52,3,3,0,0,0-.41,1.6h2.91v-.17a2.72,2.72,0,0,0-.38-1.5A1.15,1.15,0,0,0,234.07,188.87Z"/><path class="cls-1" d="M239.26,188l0,.68a2.2,2.2,0,0,1,1.79-.82,1.76,1.76,0,0,1,1.73,1.07,2.19,2.19,0,0,1,1.94-1.07c1.36,0,2.06.85,2.09,2.55v5h-1.2V190.5a2,2,0,0,0-.29-1.2,1.11,1.11,0,0,0-1-.4,1.07,1.07,0,0,0-.89.43,1.93,1.93,0,0,0-.4,1.08v5h-1.21v-4.92c0-1-.43-1.54-1.25-1.54a1.32,1.32,0,0,0-1.3.92v5.54h-1.2V188Z"/><path class="cls-1" d="M251.29,195.5a2.71,2.71,0,0,1-2.12-.82,3.59,3.59,0,0,1-.75-2.42v-.9a4.17,4.17,0,0,1,.72-2.59,2.4,2.4,0,0,1,2-.94,2.32,2.32,0,0,1,1.94.83,4.24,4.24,0,0,1,.65,2.57v.8h-4.12v.17a2.76,2.76,0,0,0,.44,1.73,1.58,1.58,0,0,0,1.29.54,2.13,2.13,0,0,0,.94-.2,2.36,2.36,0,0,0,.76-.64l.63.76A2.73,2.73,0,0,1,251.29,195.5Zm-.13-6.63a1.26,1.26,0,0,0-1.12.52,3,3,0,0,0-.41,1.6h2.91v-.17a2.72,2.72,0,0,0-.38-1.5A1.15,1.15,0,0,0,251.16,188.87Z"/><path class="cls-1" d="M258.26,189.1a3.12,3.12,0,0,0-.55,0,1.33,1.33,0,0,0-1.3,1v5.29H255.2V188h1.18l0,.75a1.5,1.5,0,0,1,1.37-.89,1,1,0,0,1,.48.1Z"/><path class="cls-1" d="M261.9,194.47a1.31,1.31,0,0,0,1-.38,1.55,1.55,0,0,0,.39-1.06h1.14a2.48,2.48,0,0,1-.75,1.77,2.4,2.4,0,0,1-1.75.7,2.59,2.59,0,0,1-2.09-.86,4,4,0,0,1-.72-2.58v-.81a4,4,0,0,1,.71-2.55,2.57,2.57,0,0,1,2.1-.87,2.35,2.35,0,0,1,1.8.72,2.9,2.9,0,0,1,.7,2h-1.14a1.92,1.92,0,0,0-.39-1.23,1.22,1.22,0,0,0-1-.41,1.4,1.4,0,0,0-1.2.53,3,3,0,0,0-.4,1.74v.94a3.38,3.38,0,0,0,.38,1.85A1.41,1.41,0,0,0,261.9,194.47Z"/><path class="cls-1" d="M269.57,194.71a2,2,0,0,1-1.75.79,1.77,1.77,0,0,1-1.52-.69,3.4,3.4,0,0,1-.52-2V188H267v4.73c0,1.15.35,1.73,1,1.73a1.52,1.52,0,0,0,1.52-1V188h1.21v7.39H269.6Z"/><path class="cls-1" d="M275.62,189.1a3.1,3.1,0,0,0-.54,0,1.32,1.32,0,0,0-1.3,1v5.29h-1.21V188h1.17l0,.75a1.52,1.52,0,0,1,1.38-.89,1,1,0,0,1,.48.1Z"/><path class="cls-1" d="M279,193.35l1.35-5.38h1.28l-2.42,8.44a3.27,3.27,0,0,1-.77,1.44,1.53,1.53,0,0,1-1.13.5,2.45,2.45,0,0,1-.63-.11v-1l.26,0a1.23,1.23,0,0,0,.83-.25,1.69,1.69,0,0,0,.48-.86l.24-.83L276.29,188h1.32Z"/><path class="cls-1" d="M282.13,194.7a.85.85,0,0,1,.19-.55.9.9,0,0,1,1.18,0,.76.76,0,0,1,.2.55.73.73,0,0,1-.2.53.93.93,0,0,1-1.18,0A.82.82,0,0,1,282.13,194.7Z"/><path class="cls-1" d="M288.3,194.47a1.3,1.3,0,0,0,1-.38,1.55,1.55,0,0,0,.39-1.06h1.15a2.53,2.53,0,0,1-.76,1.77,2.4,2.4,0,0,1-1.75.7,2.59,2.59,0,0,1-2.09-.86,4,4,0,0,1-.72-2.58v-.81a4,4,0,0,1,.71-2.55,2.57,2.57,0,0,1,2.1-.87,2.35,2.35,0,0,1,1.8.72,3,3,0,0,1,.71,2h-1.15a1.92,1.92,0,0,0-.39-1.23,1.22,1.22,0,0,0-1-.41,1.4,1.4,0,0,0-1.2.53,3,3,0,0,0-.4,1.74v.94a3.38,3.38,0,0,0,.38,1.85A1.41,1.41,0,0,0,288.3,194.47Z"/><path class="cls-1" d="M292,191.32a3.88,3.88,0,0,1,.78-2.55,2.55,2.55,0,0,1,2.07-.94,2.58,2.58,0,0,1,2.06.92,3.78,3.78,0,0,1,.81,2.49V192a3.84,3.84,0,0,1-.78,2.54,2.78,2.78,0,0,1-4.14,0,3.69,3.69,0,0,1-.8-2.46Zm1.21.7a3.24,3.24,0,0,0,.44,1.8,1.42,1.42,0,0,0,1.21.65q1.6,0,1.65-2.31v-.84a3.14,3.14,0,0,0-.45-1.79,1.4,1.4,0,0,0-1.21-.66,1.39,1.39,0,0,0-1.2.66,3.2,3.2,0,0,0-.44,1.79Z"/><path class="cls-1" d="M300.37,188l0,.68a2.18,2.18,0,0,1,1.78-.82,1.76,1.76,0,0,1,1.73,1.07,2.19,2.19,0,0,1,1.94-1.07c1.36,0,2.06.85,2.09,2.55v5h-1.2V190.5a2,2,0,0,0-.29-1.2,1.1,1.1,0,0,0-1-.4,1.08,1.08,0,0,0-.89.43,1.85,1.85,0,0,0-.39,1.08v5H303v-4.92c0-1-.43-1.54-1.25-1.54a1.32,1.32,0,0,0-1.29.92v5.54h-1.21V188Z"/><path class="cls-1" d="M309.78,197.35l-.72-.5a3.27,3.27,0,0,0,.67-1.84v-1.14H311v1a3.17,3.17,0,0,1-.33,1.38A3.34,3.34,0,0,1,309.78,197.35Z"/><path class="cls-1" d="M315.46,191.33a4.49,4.49,0,0,1,.63-2.61,2.12,2.12,0,0,1,1.87-.89,1.91,1.91,0,0,1,1.67.86l.06-.72h1.1v10.24h-1.21v-3.5a1.89,1.89,0,0,1-1.62.79,2.15,2.15,0,0,1-1.84-.87,4.3,4.3,0,0,1-.66-2.54Zm1.21.69a3.47,3.47,0,0,0,.39,1.85,1.33,1.33,0,0,0,1.21.6,1.43,1.43,0,0,0,1.31-.82v-4a1.46,1.46,0,0,0-1.3-.82,1.34,1.34,0,0,0-1.22.6,3.58,3.58,0,0,0-.39,1.81Z"/><path class="cls-1" d="M326.5,194.71a2.08,2.08,0,0,1-1.76.79,1.77,1.77,0,0,1-1.52-.69,3.48,3.48,0,0,1-.52-2V188h1.2v4.73c0,1.15.35,1.73,1,1.73a1.51,1.51,0,0,0,1.52-1V188h1.21v7.39h-1.15Z"/><path class="cls-1" d="M332.14,195.5a2.68,2.68,0,0,1-2.12-.82,3.54,3.54,0,0,1-.76-2.42v-.9a4.11,4.11,0,0,1,.73-2.59,2.38,2.38,0,0,1,2-.94,2.32,2.32,0,0,1,1.94.83,4.23,4.23,0,0,1,.66,2.57v.8h-4.13v.17a2.76,2.76,0,0,0,.44,1.73,1.58,1.58,0,0,0,1.29.54,2.13,2.13,0,0,0,.94-.2,2.5,2.5,0,0,0,.77-.64l.62.76A2.73,2.73,0,0,1,332.14,195.5Zm-.14-6.63a1.28,1.28,0,0,0-1.12.52,3.12,3.12,0,0,0-.41,1.6h2.92v-.17a2.9,2.9,0,0,0-.38-1.5A1.17,1.17,0,0,0,332,188.87Z"/><path class="cls-1" d="M338.69,195.5a2.69,2.69,0,0,1-2.12-.82,3.59,3.59,0,0,1-.75-2.42v-.9a4.17,4.17,0,0,1,.72-2.59,2.38,2.38,0,0,1,2-.94,2.33,2.33,0,0,1,1.95.83,4.31,4.31,0,0,1,.65,2.57v.8H337v.17a2.7,2.7,0,0,0,.45,1.73,1.58,1.58,0,0,0,1.29.54,2.16,2.16,0,0,0,.94-.2,2.47,2.47,0,0,0,.76-.64l.63.76A2.73,2.73,0,0,1,338.69,195.5Zm-.14-6.63a1.25,1.25,0,0,0-1.11.52A3,3,0,0,0,337,191h2.91v-.17a2.8,2.8,0,0,0-.38-1.5A1.16,1.16,0,0,0,338.55,188.87Z"/><path class="cls-1" d="M343.74,188l0,.8a2.15,2.15,0,0,1,1.79-.94c1.31,0,2,.87,2,2.62v4.91h-1.2V190.5a2,2,0,0,0-.29-1.23,1,1,0,0,0-.87-.37,1.23,1.23,0,0,0-.81.3,2.35,2.35,0,0,0-.58.79v5.37H342.6V188Z"/><path class="cls-1" d="M349.12,191.32a3.88,3.88,0,0,1,.78-2.55,2.77,2.77,0,0,1,4.14,0,3.77,3.77,0,0,1,.8,2.49V192a3.89,3.89,0,0,1-.77,2.54,2.78,2.78,0,0,1-4.14,0,3.75,3.75,0,0,1-.81-2.46Zm1.21.7a3.15,3.15,0,0,0,.45,1.8,1.4,1.4,0,0,0,1.21.65c1.06,0,1.61-.77,1.64-2.31v-.84a3.14,3.14,0,0,0-.45-1.79,1.42,1.42,0,0,0-2.4,0,3.12,3.12,0,0,0-.45,1.79Z"/><path class="cls-1" d="M357.54,188l0,.8a2.15,2.15,0,0,1,1.8-.94c1.3,0,2,.87,2,2.62v4.91h-1.21V190.5a2,2,0,0,0-.29-1.23,1,1,0,0,0-.87-.37,1.23,1.23,0,0,0-.81.3,2.35,2.35,0,0,0-.58.79v5.37H356.4V188Z"/><path class="cls-1" d="M364.48,195.36h-1.21v-10.5h1.21Z"/><path class="cls-1" d="M367.78,186a.76.76,0,0,1-.17.52.64.64,0,0,1-.52.2.66.66,0,0,1-.51-.2.81.81,0,0,1-.17-.52.8.8,0,0,1,.17-.51.61.61,0,0,1,.51-.22.62.62,0,0,1,.52.22A.75.75,0,0,1,367.78,186Zm-.09,9.36h-1.21V188h1.21Z"/><path class="cls-1" d="M370.73,188l0,.8a2.12,2.12,0,0,1,1.79-.94c1.31,0,2,.87,2,2.62v4.91h-1.2V190.5a2,2,0,0,0-.29-1.23,1.07,1.07,0,0,0-.87-.37,1.23,1.23,0,0,0-.81.3,2.35,2.35,0,0,0-.58.79v5.37h-1.21V188Z"/><path class="cls-1" d="M379,195.5a2.69,2.69,0,0,1-2.12-.82,3.59,3.59,0,0,1-.75-2.42v-.9a4.17,4.17,0,0,1,.72-2.59,2.38,2.38,0,0,1,2-.94,2.29,2.29,0,0,1,1.94.83,4.23,4.23,0,0,1,.66,2.57v.8h-4.13v.17a2.7,2.7,0,0,0,.45,1.73,1.58,1.58,0,0,0,1.29.54,2.16,2.16,0,0,0,.94-.2,2.47,2.47,0,0,0,.76-.64l.63.76A2.76,2.76,0,0,1,379,195.5Zm-.14-6.63a1.25,1.25,0,0,0-1.11.52,3,3,0,0,0-.41,1.6h2.91v-.17a2.8,2.8,0,0,0-.38-1.5A1.17,1.17,0,0,0,378.87,188.87Z"/><path class="cls-1" d="M383,194.7a.81.81,0,0,1,.2-.55.75.75,0,0,1,.58-.22.78.78,0,0,1,.59.22.76.76,0,0,1,.2.55.73.73,0,0,1-.2.53.77.77,0,0,1-.59.21.75.75,0,0,1-.58-.21A.78.78,0,0,1,383,194.7Z"/><path class="cls-1" d="M389.17,194.47a1.3,1.3,0,0,0,1-.38,1.55,1.55,0,0,0,.39-1.06h1.15a2.53,2.53,0,0,1-.76,1.77,2.38,2.38,0,0,1-1.75.7,2.59,2.59,0,0,1-2.09-.86,4,4,0,0,1-.72-2.58v-.81a3.92,3.92,0,0,1,.72-2.55,2.54,2.54,0,0,1,2.09-.87,2.35,2.35,0,0,1,1.8.72,3,3,0,0,1,.71,2h-1.15a1.92,1.92,0,0,0-.39-1.23,1.22,1.22,0,0,0-1-.41,1.4,1.4,0,0,0-1.2.53,3,3,0,0,0-.4,1.74v.94a3.38,3.38,0,0,0,.38,1.85A1.41,1.41,0,0,0,389.17,194.47Z"/><path class="cls-1" d="M392.82,191.32a3.88,3.88,0,0,1,.78-2.55,2.55,2.55,0,0,1,2.07-.94,2.6,2.6,0,0,1,2.07.92,3.77,3.77,0,0,1,.8,2.49V192a3.84,3.84,0,0,1-.78,2.54,2.78,2.78,0,0,1-4.14,0,3.74,3.74,0,0,1-.8-2.46Zm1.21.7a3.15,3.15,0,0,0,.45,1.8,1.39,1.39,0,0,0,1.2.65q1.6,0,1.65-2.31v-.84a3.14,3.14,0,0,0-.45-1.79,1.4,1.4,0,0,0-1.21-.66,1.36,1.36,0,0,0-1.19.66,3.12,3.12,0,0,0-.45,1.79Z"/><path class="cls-1" d="M401.24,188l0,.68a2.18,2.18,0,0,1,1.78-.82,1.75,1.75,0,0,1,1.73,1.07,2.21,2.21,0,0,1,1.94-1.07c1.36,0,2.06.85,2.09,2.55v5h-1.2V190.5a2,2,0,0,0-.29-1.2,1.1,1.1,0,0,0-1-.4,1.08,1.08,0,0,0-.89.43,1.92,1.92,0,0,0-.39,1.08v5h-1.22v-4.92c0-1-.43-1.54-1.25-1.54a1.32,1.32,0,0,0-1.29.92v5.54h-1.2V188Z"/><path class="cls-1" d="M415.86,193.35l1.35-5.38h1.28l-2.42,8.44a3.27,3.27,0,0,1-.77,1.44,1.53,1.53,0,0,1-1.13.5,2.45,2.45,0,0,1-.63-.11v-1l.26,0a1.25,1.25,0,0,0,.83-.25,1.69,1.69,0,0,0,.48-.86l.24-.83L413.18,188h1.31Z"/><path class="cls-1" d="M429.27,194.13l-.21.27a3.46,3.46,0,0,1-2.77,1.1,3.17,3.17,0,0,1-2.53-1.07,4.56,4.56,0,0,1-.94-3v-2a4.91,4.91,0,0,1,.84-3.13,3,3,0,0,1,2.5-1,3.08,3.08,0,0,1,2.23.79,3.31,3.31,0,0,1,.88,2.26H428a2.53,2.53,0,0,0-.51-1.45,1.66,1.66,0,0,0-1.34-.52,1.78,1.78,0,0,0-1.57.7,4,4,0,0,0-.52,2.24v2a3.92,3.92,0,0,0,.57,2.3,1.9,1.9,0,0,0,1.65.81,2.22,2.22,0,0,0,1.54-.49l.18-.17v-2.29H426.2v-1.07h3.07Z"/><path class="cls-1" d="M433.79,195.5a2.71,2.71,0,0,1-2.12-.82,3.59,3.59,0,0,1-.75-2.42v-.9a4.17,4.17,0,0,1,.72-2.59,2.39,2.39,0,0,1,2-.94,2.32,2.32,0,0,1,1.94.83,4.24,4.24,0,0,1,.65,2.57v.8h-4.13v.17a2.7,2.7,0,0,0,.45,1.73,1.58,1.58,0,0,0,1.29.54,2.13,2.13,0,0,0,.94-.2,2.36,2.36,0,0,0,.76-.64l.63.76A2.73,2.73,0,0,1,433.79,195.5Zm-.13-6.63a1.26,1.26,0,0,0-1.12.52,3,3,0,0,0-.41,1.6H435v-.17a2.72,2.72,0,0,0-.38-1.5A1.15,1.15,0,0,0,433.66,188.87Z"/><path class="cls-1" d="M439.29,186.18V188h1.11v1h-1.11v4.6a1.3,1.3,0,0,0,.14.66.54.54,0,0,0,.49.23,1.41,1.41,0,0,0,.49-.09v1a2.74,2.74,0,0,1-.84.14,1.28,1.28,0,0,1-1.1-.51,2.43,2.43,0,0,1-.37-1.45v-4.6H437v-1h1.13v-1.79Z"/><path class="cls-1" d="M443.42,186.18V188h1.12v1h-1.12v4.6a1.19,1.19,0,0,0,.15.66.53.53,0,0,0,.49.23,1.46,1.46,0,0,0,.49-.09l0,1a2.64,2.64,0,0,1-.84.14,1.27,1.27,0,0,1-1.09-.51,2.43,2.43,0,0,1-.38-1.45v-4.6h-1.13v-1h1.13v-1.79Z"/><path class="cls-1" d="M448,193.35l1.34-5.38h1.29l-2.42,8.44a3.27,3.27,0,0,1-.77,1.44,1.55,1.55,0,0,1-1.14.5,2.6,2.6,0,0,1-.63-.11v-1l.27,0a1.2,1.2,0,0,0,.82-.25,1.77,1.77,0,0,0,.49-.86l.24-.83L445.31,188h1.32Z"/><path class="cls-1" d="M456.49,195.36h-1.25v-10h1.25Z"/><path class="cls-1" d="M459.65,188l0,.68a2.19,2.19,0,0,1,1.78-.82,1.74,1.74,0,0,1,1.73,1.07,2.22,2.22,0,0,1,1.95-1.07c1.36,0,2.06.85,2.09,2.55v5H466V190.5a2,2,0,0,0-.28-1.2,1.11,1.11,0,0,0-1-.4,1.07,1.07,0,0,0-.89.43,1.93,1.93,0,0,0-.4,1.08v5h-1.22v-4.92c0-1-.43-1.54-1.25-1.54a1.32,1.32,0,0,0-1.29.92v5.54h-1.2V188Z"/><path class="cls-1" d="M472.85,195.36a2.75,2.75,0,0,1-.15-.8,1.92,1.92,0,0,1-1.64.94,2,2,0,0,1-2.14-2.15,2.24,2.24,0,0,1,.77-1.79,3.12,3.12,0,0,1,2.1-.68h.89v-.79a1.25,1.25,0,0,0-.3-.94,1.22,1.22,0,0,0-.89-.28,1.24,1.24,0,0,0-.89.32,1.09,1.09,0,0,0-.34.83h-1.21a2,2,0,0,1,.33-1.09,2.35,2.35,0,0,1,.9-.81,2.79,2.79,0,0,1,1.27-.29,2.42,2.42,0,0,1,1.72.56,2.21,2.21,0,0,1,.61,1.65v3.73a4.38,4.38,0,0,0,.23,1.48v.11Zm-1.61-1a1.7,1.7,0,0,0,1.44-.86v-1.77H472a2.29,2.29,0,0,0-1.36.39,1.24,1.24,0,0,0-.5,1,1.37,1.37,0,0,0,.26.92A1.11,1.11,0,0,0,471.24,194.4Z"/><path class="cls-1" d="M475.51,191.33a4.49,4.49,0,0,1,.63-2.61,2.09,2.09,0,0,1,1.84-.89,1.91,1.91,0,0,1,1.72,1l.06-.82h1.09v7.46a2.92,2.92,0,0,1-.7,2.11,2.6,2.6,0,0,1-2,.74A3.18,3.18,0,0,1,477,198a2.41,2.41,0,0,1-1-.66l.49-.84a2.29,2.29,0,0,0,1.66.74c1,0,1.52-.55,1.55-1.64v-1a1.9,1.9,0,0,1-1.67.87,2.12,2.12,0,0,1-1.79-.86,4.27,4.27,0,0,1-.67-2.49Zm1.21.69a3.46,3.46,0,0,0,.37,1.82,1.3,1.3,0,0,0,1.2.59,1.44,1.44,0,0,0,1.35-.93v-3.69a1.47,1.47,0,0,0-1.34-.91,1.3,1.3,0,0,0-1.2.59,3.45,3.45,0,0,0-.38,1.79Z"/><path class="cls-1" d="M485.29,195.5a2.67,2.67,0,0,1-2.11-.82,3.54,3.54,0,0,1-.76-2.42v-.9a4.17,4.17,0,0,1,.72-2.59,2.41,2.41,0,0,1,2-.94,2.32,2.32,0,0,1,1.94.83,4.23,4.23,0,0,1,.66,2.57v.8h-4.13v.17a2.76,2.76,0,0,0,.44,1.73,1.58,1.58,0,0,0,1.29.54,2.13,2.13,0,0,0,.94-.2,2.5,2.5,0,0,0,.77-.64l.62.76A2.73,2.73,0,0,1,485.29,195.5Zm-.13-6.63a1.27,1.27,0,0,0-1.12.52,3,3,0,0,0-.41,1.6h2.92v-.17a2.9,2.9,0,0,0-.38-1.5A1.17,1.17,0,0,0,485.16,188.87Z"/><path class="cls-1" d="M492.8,193.47a.92.92,0,0,0-.29-.67,4.36,4.36,0,0,0-1.14-.66,7.82,7.82,0,0,1-1.38-.69,2,2,0,0,1-.59-.65,1.7,1.7,0,0,1-.2-.87,1.94,1.94,0,0,1,.66-1.5,2.69,2.69,0,0,1,3.42,0,2.13,2.13,0,0,1,.66,1.61h-1.21a1.21,1.21,0,0,0-.33-.85,1.16,1.16,0,0,0-.86-.35,1.2,1.2,0,0,0-.84.28.94.94,0,0,0-.3.73.85.85,0,0,0,.22.6,4,4,0,0,0,1.07.59,5.37,5.37,0,0,1,1.84,1,1.78,1.78,0,0,1,.48,1.28,1.94,1.94,0,0,1-.66,1.54,2.61,2.61,0,0,1-1.78.58,2.65,2.65,0,0,1-1.87-.66,2.19,2.19,0,0,1-.72-1.68h1.22a1.31,1.31,0,0,0,.37,1,1.65,1.65,0,0,0,1.92.08A.92.92,0,0,0,492.8,193.47Z"/></svg>