<svg id="Capa_1" data-name="Capa 1" xmlns="http://www.w3.org/2000/svg" viewBox="0 0 318.32 159.7"><defs><style>.cls-1{fill:#1d1d1b;}</style></defs><title>SVG_BASE_mobile_mercury OK</title><path class="cls-1" d="M8.57,117.52H5.67v3.77H3.8v-9.24H8.92v1.55H5.67V116h2.9Z"/><path class="cls-1" d="M16,112.05v6.4a3,3,0,0,1-.8,2.2,3.06,3.06,0,0,1-2.24.77,3.1,3.1,0,0,1-2.27-.78,3,3,0,0,1-.78-2.24v-6.35h1.88v6.36a1.89,1.89,0,0,0,.25,1.12,1.11,1.11,0,0,0,.92.34,1.07,1.07,0,0,0,.92-.34,1.88,1.88,0,0,0,.25-1.09v-6.39Z"/><path class="cls-1" d="M22.19,117.29H19.28v2.45h3.44v1.55H17.41v-9.24h5.3v1.55H19.28v2.18h2.91Z"/><path class="cls-1" d="M30.25,121.29H28.39l-2.73-6.06v6.06H23.79v-9.24h1.87l2.73,6.06v-6.06h1.86Z"/><path class="cls-1" d="M37.55,113.6H35.27v7.69H33.4V113.6H31.15v-1.55h6.4Z"/><path class="cls-1" d="M43.4,117.29H40.49v2.45h3.44v1.55h-5.3v-9.24h5.29v1.55H40.49v2.18H43.4Z"/><path class="cls-1" d="M48.91,118.86a1.17,1.17,0,0,0-.29-.85,3.37,3.37,0,0,0-1-.6,4.91,4.91,0,0,1-2-1.23A2.48,2.48,0,0,1,45,114.5a2.34,2.34,0,0,1,.83-1.87,3.43,3.43,0,0,1,3.62-.35,2.57,2.57,0,0,1,1,1,3.15,3.15,0,0,1,.35,1.49H48.93a1.56,1.56,0,0,0-.27-1,1,1,0,0,0-.8-.34,1,1,0,0,0-.76.29,1.09,1.09,0,0,0-.27.78.94.94,0,0,0,.3.68,3.33,3.33,0,0,0,1.08.64,4.75,4.75,0,0,1,2,1.2,2.73,2.73,0,0,1,.61,1.81,2.41,2.41,0,0,1-.77,1.89,3.06,3.06,0,0,1-2.09.68,3.65,3.65,0,0,1-1.63-.37A2.8,2.8,0,0,1,45.15,120a3,3,0,0,1-.42-1.62H46.6a1.76,1.76,0,0,0,.32,1.17,1.25,1.25,0,0,0,1,.36C48.58,119.9,48.91,119.55,48.91,118.86Z"/><path class="cls-1" d="M52.1,115.18a1,1,0,0,1,.28-.71,1.16,1.16,0,0,1,1.51,0,.94.94,0,0,1,.29.71.92.92,0,0,1-.3.72,1.07,1.07,0,0,1-.74.27,1,1,0,0,1-.75-.28A.91.91,0,0,1,52.1,115.18Zm0,5.19a1,1,0,0,1,.28-.71,1.16,1.16,0,0,1,1.51,0,.94.94,0,0,1,.29.71.92.92,0,0,1-.3.72,1.16,1.16,0,0,1-1.49,0A.93.93,0,0,1,52.1,120.37Z"/><path class="cls-1" d="M59.46,111.42l.63.45a3.58,3.58,0,0,0-.52,1.73v.88H58.46v-.74a3.29,3.29,0,0,1,.28-1.28A3,3,0,0,1,59.46,111.42Z"/><path class="cls-1" d="M65.64,117.21H62.51v4.08H61.35v-9.24h4.81v1H62.51v3.17h3.13Z"/><path class="cls-1" d="M70.11,115.47a4.06,4.06,0,0,0-.51,0,1.23,1.23,0,0,0-1.2.95v4.91H67.27v-6.87h1.09l0,.7a1.41,1.41,0,0,1,1.28-.83.93.93,0,0,1,.44.09Z"/><path class="cls-1" d="M73.56,121.42a2.49,2.49,0,0,1-2-.77,3.3,3.3,0,0,1-.7-2.24v-.83a3.84,3.84,0,0,1,.67-2.41,2.2,2.2,0,0,1,1.87-.88,2.15,2.15,0,0,1,1.8.77,3.93,3.93,0,0,1,.61,2.39v.74H72v.16a2.5,2.5,0,0,0,.42,1.61,1.49,1.49,0,0,0,1.2.5,2,2,0,0,0,.87-.19,2.13,2.13,0,0,0,.71-.59l.58.71A2.57,2.57,0,0,1,73.56,121.42Zm-.12-6.16a1.19,1.19,0,0,0-1,.48,2.88,2.88,0,0,0-.38,1.49h2.71v-.16a2.56,2.56,0,0,0-.36-1.39A1.07,1.07,0,0,0,73.44,115.26Z"/><path class="cls-1" d="M77,117.54a4.22,4.22,0,0,1,.59-2.42,2,2,0,0,1,1.71-.83,1.76,1.76,0,0,1,1.53.8v-3.55h1.13v9.75h-1l-.06-.74a1.76,1.76,0,0,1-1.58.87,2,2,0,0,1-1.67-.83,4,4,0,0,1-.62-2.34Zm1.12.64a3.24,3.24,0,0,0,.35,1.7,1.21,1.21,0,0,0,1.11.54,1.32,1.32,0,0,0,1.25-.84v-3.47a1.35,1.35,0,0,0-1.24-.82,1.23,1.23,0,0,0-1.12.54,3.27,3.27,0,0,0-.35,1.67Z"/><path class="cls-1" d="M83.41,117.54a4.22,4.22,0,0,1,.59-2.42,2,2,0,0,1,1.71-.83,1.77,1.77,0,0,1,1.53.8v-3.55h1.13v9.75h-1l-.06-.74a1.76,1.76,0,0,1-1.58.87,2,2,0,0,1-1.67-.83,4,4,0,0,1-.62-2.34Zm1.12.64a3.24,3.24,0,0,0,.35,1.7,1.21,1.21,0,0,0,1.11.54,1.32,1.32,0,0,0,1.25-.84v-3.47a1.35,1.35,0,0,0-1.24-.82,1.23,1.23,0,0,0-1.12.54,3.27,3.27,0,0,0-.35,1.67Z"/><path class="cls-1" d="M91.39,112.6a.72.72,0,0,1-.15.47.6.6,0,0,1-.49.2.56.56,0,0,1-.47-.2.67.67,0,0,1-.16-.47.71.71,0,0,1,.16-.48.56.56,0,0,1,.47-.2.6.6,0,0,1,.48.2A.71.71,0,0,1,91.39,112.6Zm-.08,8.69H90.18v-6.87h1.13Z"/><path class="cls-1" d="M95.53,121.42a2.51,2.51,0,0,1-2-.77,3.3,3.3,0,0,1-.7-2.24v-.83a3.84,3.84,0,0,1,.67-2.41,2.21,2.21,0,0,1,1.87-.88,2.15,2.15,0,0,1,1.8.77,3.93,3.93,0,0,1,.61,2.39v.74H94v.16a2.57,2.57,0,0,0,.41,1.61,1.49,1.49,0,0,0,1.2.5,2,2,0,0,0,.87-.19,2.13,2.13,0,0,0,.71-.59l.58.71A2.55,2.55,0,0,1,95.53,121.42Zm-.13-6.16a1.19,1.19,0,0,0-1,.48,2.88,2.88,0,0,0-.38,1.49h2.71v-.16a2.66,2.66,0,0,0-.35-1.39A1.1,1.1,0,0,0,95.4,115.26Z"/><path class="cls-1" d="M103.79,112.05l2.41,7.54,2.42-7.54h1.49v9.24H109v-3.6l.11-3.61-2.42,7.21h-.89l-2.4-7.18.1,3.58v3.6h-1.16v-9.24Z"/><path class="cls-1" d="M114.41,121.42a2.52,2.52,0,0,1-2-.77,3.35,3.35,0,0,1-.7-2.24v-.83a3.9,3.9,0,0,1,.67-2.41,2.21,2.21,0,0,1,1.87-.88,2.16,2.16,0,0,1,1.81.77,4,4,0,0,1,.61,2.39v.74h-3.84v.16a2.5,2.5,0,0,0,.42,1.61,1.46,1.46,0,0,0,1.19.5,2,2,0,0,0,.88-.19,2.1,2.1,0,0,0,.7-.59l.59.71A2.57,2.57,0,0,1,114.41,121.42Zm-.13-6.16a1.17,1.17,0,0,0-1,.48,2.78,2.78,0,0,0-.38,1.49h2.7v-.16a2.57,2.57,0,0,0-.35-1.39A1.1,1.1,0,0,0,114.28,115.26Z"/><path class="cls-1" d="M120.88,115.47a4.06,4.06,0,0,0-.51,0,1.23,1.23,0,0,0-1.2.95v4.91H118v-6.87h1.09l0,.7a1.41,1.41,0,0,1,1.28-.83,1,1,0,0,1,.44.09Z"/><path class="cls-1" d="M124.26,120.46a1.22,1.22,0,0,0,.9-.35,1.54,1.54,0,0,0,.37-1h1.06a2.36,2.36,0,0,1-.71,1.65,2.23,2.23,0,0,1-1.62.65,2.36,2.36,0,0,1-1.94-.81,3.62,3.62,0,0,1-.67-2.39v-.75a3.68,3.68,0,0,1,.66-2.37,2.39,2.39,0,0,1,2-.81,2.18,2.18,0,0,1,1.67.67,2.74,2.74,0,0,1,.66,1.82h-1.06a1.86,1.86,0,0,0-.37-1.14,1.14,1.14,0,0,0-.9-.38,1.28,1.28,0,0,0-1.11.49,2.79,2.79,0,0,0-.38,1.62v.87a3.08,3.08,0,0,0,.36,1.72A1.31,1.31,0,0,0,124.26,120.46Z"/><path class="cls-1" d="M131.38,120.69a1.93,1.93,0,0,1-1.63.73,1.65,1.65,0,0,1-1.41-.65,3.24,3.24,0,0,1-.48-1.87v-4.48H129v4.39c0,1.07.32,1.61,1,1.61a1.42,1.42,0,0,0,1.41-.91v-5.09h1.13v6.87h-1.07Z"/><path class="cls-1" d="M137,115.47a3.77,3.77,0,0,0-.51,0,1.24,1.24,0,0,0-1.2.95v4.91h-1.13v-6.87h1.1l0,.7a1.39,1.39,0,0,1,1.27-.83,1,1,0,0,1,.45.09Z"/><path class="cls-1" d="M140.11,119.42l1.25-5h1.2l-2.25,7.84a3,3,0,0,1-.72,1.34,1.44,1.44,0,0,1-1.05.46,2.19,2.19,0,0,1-.59-.1V123l.25,0a1.14,1.14,0,0,0,.77-.23,1.62,1.62,0,0,0,.44-.8l.23-.77-2-6.81h1.22Z"/><path class="cls-1" d="M143,120.67a.72.72,0,0,1,.19-.5.67.67,0,0,1,.54-.21.67.67,0,0,1,.73.71.69.69,0,0,1-.18.49.74.74,0,0,1-.55.2.67.67,0,0,1-.73-.69Z"/><path class="cls-1" d="M153.84,118.87h-3.13l-.71,2.42h-1.2l3-9.24h1l3,9.24h-1.19Zm-2.82-1h2.52l-1.27-4.2Z"/><path class="cls-1" d="M161.56,118.15l-.6.68v2.46h-1.12v-9.75H161v5.83l2.14-3h1.35l-2.18,2.87,2.46,4h-1.3Z"/><path class="cls-1" d="M167,112.6a.72.72,0,0,1-.15.47.6.6,0,0,1-.49.2.56.56,0,0,1-.47-.2.67.67,0,0,1-.16-.47.71.71,0,0,1,.16-.48.56.56,0,0,1,.47-.2.6.6,0,0,1,.48.2A.71.71,0,0,1,167,112.6Zm-.08,8.69h-1.13v-6.87h1.13Z"/><path class="cls-1" d="M169.73,114.42l0,.74a2,2,0,0,1,1.67-.87c1.22,0,1.83.81,1.85,2.43v4.57h-1.12v-4.51a1.89,1.89,0,0,0-.27-1.15,1,1,0,0,0-.81-.34,1.11,1.11,0,0,0-.75.28,2.14,2.14,0,0,0-.54.73v5h-1.12v-6.87Z"/><path class="cls-1" d="M174.73,117.54a4.14,4.14,0,0,1,.59-2.42,2,2,0,0,1,1.7-.83,1.78,1.78,0,0,1,1.54.8v-3.55h1.12v9.75h-1l-.06-.74a1.77,1.77,0,0,1-1.58.87,2,2,0,0,1-1.68-.83,4,4,0,0,1-.61-2.34Zm1.12.64a3.26,3.26,0,0,0,.34,1.7,1.23,1.23,0,0,0,1.12.54,1.32,1.32,0,0,0,1.25-.84v-3.47a1.36,1.36,0,0,0-1.24-.82,1.23,1.23,0,0,0-1.12.54,3.17,3.17,0,0,0-.35,1.67Z"/><path class="cls-1" d="M184.15,117.54a3.55,3.55,0,0,1,.73-2.37,2.35,2.35,0,0,1,1.92-.88,2.44,2.44,0,0,1,1.92.85,3.6,3.6,0,0,1,.75,2.32v.73a3.6,3.6,0,0,1-.73,2.36,2.37,2.37,0,0,1-1.93.87,2.4,2.4,0,0,1-1.91-.85,3.51,3.51,0,0,1-.75-2.28Zm1.13.65a2.87,2.87,0,0,0,.41,1.66,1.29,1.29,0,0,0,1.12.61c1,0,1.5-.72,1.53-2.15v-.77a2.91,2.91,0,0,0-.42-1.67,1.32,1.32,0,0,0-2.23,0,2.89,2.89,0,0,0-.41,1.66Z"/><path class="cls-1" d="M191.41,121.29v-6h-.9v-.91h.9v-.79a2.48,2.48,0,0,1,.53-1.64,1.81,1.81,0,0,1,1.44-.58,2.29,2.29,0,0,1,.68.1l-.06.95a2.1,2.1,0,0,0-.51-.06c-.64,0-1,.46-1,1.37v.65h1.18v.91h-1.18v6Z"/><path class="cls-1" d="M199.06,114.42l0,.64a2,2,0,0,1,1.66-.77,1.63,1.63,0,0,1,1.6,1,2,2,0,0,1,1.8-1q1.9,0,1.95,2.37v4.63H205v-4.52a1.91,1.91,0,0,0-.27-1.12,1.05,1.05,0,0,0-.9-.36,1,1,0,0,0-.82.39,1.74,1.74,0,0,0-.37,1v4.6h-1.13v-4.57c0-1-.4-1.43-1.16-1.43a1.21,1.21,0,0,0-1.2.85v5.15H198v-6.87Z"/><path class="cls-1" d="M211.32,121.29a2.42,2.42,0,0,1-.15-.75,1.78,1.78,0,0,1-1.52.88,2,2,0,0,1-1.46-.53,2,2,0,0,1-.52-1.47,2.11,2.11,0,0,1,.71-1.67,2.94,2.94,0,0,1,2-.63h.83v-.73a1.16,1.16,0,0,0-.28-.87,1.18,1.18,0,0,0-.83-.26,1.13,1.13,0,0,0-.82.3,1,1,0,0,0-.32.76h-1.13a1.8,1.8,0,0,1,.32-1,2.08,2.08,0,0,1,.83-.75,2.45,2.45,0,0,1,1.18-.28,2.24,2.24,0,0,1,1.6.53,2,2,0,0,1,.56,1.52v3.47a4.34,4.34,0,0,0,.22,1.38v.1Zm-1.5-.9a1.5,1.5,0,0,0,.79-.22,1.52,1.52,0,0,0,.55-.58V118h-.64a2,2,0,0,0-1.26.36,1.13,1.13,0,0,0-.47,1,1.25,1.25,0,0,0,.24.85A1,1,0,0,0,209.82,120.39Z"/><path class="cls-1" d="M213.79,117.54a4.14,4.14,0,0,1,.58-2.42,2,2,0,0,1,1.71-.83,1.74,1.74,0,0,1,1.59.9l.06-.77h1v6.93a2.7,2.7,0,0,1-.66,2,2.37,2.37,0,0,1-1.82.68,3.06,3.06,0,0,1-1.14-.25,2.38,2.38,0,0,1-.95-.62l.46-.77a2.15,2.15,0,0,0,1.54.68c.94,0,1.42-.5,1.44-1.53v-.89a1.76,1.76,0,0,1-1.55.81,2,2,0,0,1-1.66-.81,3.91,3.91,0,0,1-.62-2.3Zm1.12.64a3.36,3.36,0,0,0,.34,1.7,1.23,1.23,0,0,0,1.12.54,1.34,1.34,0,0,0,1.25-.86v-3.43a1.35,1.35,0,0,0-1.24-.84,1.23,1.23,0,0,0-1.12.54,3.27,3.27,0,0,0-.35,1.67Z"/><path class="cls-1" d="M221.72,112.6a.67.67,0,0,1-.16.47.68.68,0,0,1-1,0,.67.67,0,0,1-.16-.47.71.71,0,0,1,.16-.48.68.68,0,0,1,1,0A.77.77,0,0,1,221.72,112.6Zm-.09,8.69h-1.12v-6.87h1.12Z"/><path class="cls-1" d="M225.78,120.46a1.22,1.22,0,0,0,.9-.35,1.48,1.48,0,0,0,.36-1h1.06a2.35,2.35,0,0,1-.7,1.65,2.23,2.23,0,0,1-1.62.65,2.39,2.39,0,0,1-1.95-.81,3.68,3.68,0,0,1-.66-2.39v-.75a3.68,3.68,0,0,1,.66-2.37,2.37,2.37,0,0,1,1.94-.81,2.21,2.21,0,0,1,1.68.67,2.68,2.68,0,0,1,.65,1.82H227a1.8,1.8,0,0,0-.36-1.14,1.15,1.15,0,0,0-.91-.38,1.28,1.28,0,0,0-1.11.49,2.88,2.88,0,0,0-.37,1.62v.87a3.08,3.08,0,0,0,.36,1.72A1.3,1.3,0,0,0,225.78,120.46Z"/><path class="cls-1" d="M229.47,114.65l-.62-.46a3.43,3.43,0,0,0,.51-1.72v-.93h1.11v.86a3.31,3.31,0,0,1-.28,1.23A2.76,2.76,0,0,1,229.47,114.65Z"/><path class="cls-1" d="M234.81,117.54a10.62,10.62,0,0,1,.45-3.13,8.25,8.25,0,0,1,1.28-2.57,4.26,4.26,0,0,1,1-1l.23.77a5.27,5.27,0,0,0-1.25,2.2,11.08,11.08,0,0,0-.54,3.27v.51a11.66,11.66,0,0,0,.62,4,5.51,5.51,0,0,0,1.17,2l-.23.72a4.73,4.73,0,0,1-1.18-1.29A9.57,9.57,0,0,1,234.81,117.54Z"/><path class="cls-1" d="M239.07,121.29v-9.24h2.64a2.65,2.65,0,0,1,1.9.61,2.48,2.48,0,0,1,.64,1.85,2,2,0,0,1-.33,1.14,2.16,2.16,0,0,1-.87.77,1.79,1.79,0,0,1,1,.78,2.59,2.59,0,0,1,.37,1.42,2.7,2.7,0,0,1-.68,2,2.57,2.57,0,0,1-1.94.71Zm1.16-5.3h1.5a1.26,1.26,0,0,0,1-.41,1.87,1.87,0,0,0,0-2.19,1.35,1.35,0,0,0-1-.35h-1.48Zm0,1v3.32h1.59a1.34,1.34,0,0,0,1.05-.43,1.77,1.77,0,0,0,.39-1.22c0-1.12-.47-1.67-1.41-1.67Z"/><path class="cls-1" d="M247.22,121.29h-1.13v-9.75h1.13Z"/><path class="cls-1" d="M252.48,120.69a1.93,1.93,0,0,1-1.63.73,1.65,1.65,0,0,1-1.41-.65,3.24,3.24,0,0,1-.48-1.87v-4.48h1.12v4.39c0,1.07.32,1.61,1,1.61a1.41,1.41,0,0,0,1.41-.91v-5.09h1.13v6.87h-1.07Z"/><path class="cls-1" d="M256.33,114.42l0,.64a2,2,0,0,1,1.66-.77,1.63,1.63,0,0,1,1.6,1,2.06,2.06,0,0,1,1.81-1c1.26,0,1.91.79,1.94,2.37v4.63h-1.12v-4.52a1.91,1.91,0,0,0-.27-1.12,1,1,0,0,0-.9-.36,1,1,0,0,0-.82.39,1.81,1.81,0,0,0-.37,1v4.6h-1.13v-4.57c0-1-.4-1.43-1.16-1.43a1.21,1.21,0,0,0-1.2.85v5.15h-1.12v-6.87Z"/><path class="cls-1" d="M267.5,121.42a2.49,2.49,0,0,1-2-.77,3.3,3.3,0,0,1-.7-2.24v-.83a3.84,3.84,0,0,1,.67-2.41,2.2,2.2,0,0,1,1.87-.88,2.15,2.15,0,0,1,1.8.77,3.93,3.93,0,0,1,.61,2.39v.74H266v.16a2.5,2.5,0,0,0,.42,1.61,1.49,1.49,0,0,0,1.2.5,2,2,0,0,0,.87-.19,2.13,2.13,0,0,0,.71-.59l.58.71A2.57,2.57,0,0,1,267.5,121.42Zm-.12-6.16a1.19,1.19,0,0,0-1,.48,2.88,2.88,0,0,0-.38,1.49h2.71v-.16a2.56,2.56,0,0,0-.36-1.39A1.07,1.07,0,0,0,267.38,115.26Z"/><path class="cls-1" d="M273.55,117.6a9.72,9.72,0,0,1-1.27,5,4.93,4.93,0,0,1-1.42,1.66l-.22-.72a5.48,5.48,0,0,0,1.29-2.34,12.14,12.14,0,0,0,.5-3.46v-.22a11.31,11.31,0,0,0-.79-4.32,5.49,5.49,0,0,0-1-1.63l.22-.72a4.77,4.77,0,0,1,1.35,1.54A9.77,9.77,0,0,1,273.55,117.6Z"/><path class="cls-1" d="M275.29,123.13l-.67-.46a3,3,0,0,0,.62-1.71V119.9h1.15v.92a2.87,2.87,0,0,1-.31,1.28A3.1,3.1,0,0,1,275.29,123.13Z"/><path class="cls-1" d="M4.69,128.42l.64.45a3.38,3.38,0,0,0-.52,1.73v.88H3.69v-.74A3.29,3.29,0,0,1,4,129.46,3,3,0,0,1,4.69,128.42Z"/><path class="cls-1" d="M10.87,134.21H7.74v4.08H6.58v-9.24h4.81v1H7.74v3.17h3.13Z"/><path class="cls-1" d="M15.34,132.47a3.77,3.77,0,0,0-.51,0,1.24,1.24,0,0,0-1.2.95v4.91H12.51v-6.87H13.6l0,.7a1.39,1.39,0,0,1,1.27-.83,1,1,0,0,1,.45.09Z"/><path class="cls-1" d="M18.8,138.42a2.51,2.51,0,0,1-2-.77,3.3,3.3,0,0,1-.7-2.24v-.83a3.84,3.84,0,0,1,.67-2.41,2.21,2.21,0,0,1,1.87-.88,2.15,2.15,0,0,1,1.8.77,3.93,3.93,0,0,1,.61,2.39v.74H17.25v.16a2.57,2.57,0,0,0,.41,1.61,1.49,1.49,0,0,0,1.2.5,2,2,0,0,0,.87-.19,2.13,2.13,0,0,0,.71-.59l.58.71A2.55,2.55,0,0,1,18.8,138.42Zm-.13-6.16a1.19,1.19,0,0,0-1,.48,2.88,2.88,0,0,0-.38,1.49H20v-.16a2.56,2.56,0,0,0-.36-1.39A1.07,1.07,0,0,0,18.67,132.26Z"/><path class="cls-1" d="M22.19,134.54a4.14,4.14,0,0,1,.6-2.42,2,2,0,0,1,1.7-.83,1.78,1.78,0,0,1,1.54.8v-3.55h1.12v9.75h-1l-.06-.74a1.75,1.75,0,0,1-1.58.87,2,2,0,0,1-1.67-.83,4,4,0,0,1-.62-2.34Zm1.13.64a3.26,3.26,0,0,0,.34,1.7,1.23,1.23,0,0,0,1.12.54,1.34,1.34,0,0,0,1.25-.84v-3.47a1.37,1.37,0,0,0-1.25-.82,1.24,1.24,0,0,0-1.12.54,3.28,3.28,0,0,0-.34,1.67Z"/><path class="cls-1" d="M28.64,134.54a4.22,4.22,0,0,1,.59-2.42,2,2,0,0,1,1.71-.83,1.79,1.79,0,0,1,1.54.8v-3.55H33.6v9.75h-1l-.06-.74a1.75,1.75,0,0,1-1.58.87,2,2,0,0,1-1.67-.83,4,4,0,0,1-.62-2.34Zm1.12.64a3.24,3.24,0,0,0,.35,1.7,1.22,1.22,0,0,0,1.11.54,1.35,1.35,0,0,0,1.26-.84v-3.47a1.37,1.37,0,0,0-1.25-.82,1.23,1.23,0,0,0-1.12.54,3.38,3.38,0,0,0-.35,1.67Z"/><path class="cls-1" d="M36.63,129.6a.72.72,0,0,1-.16.47.6.6,0,0,1-.48.2.58.58,0,0,1-.48-.2.67.67,0,0,1-.16-.47.71.71,0,0,1,.16-.48.58.58,0,0,1,.48-.2.56.56,0,0,1,.47.2A.72.72,0,0,1,36.63,129.6Zm-.09,8.69H35.41v-6.87h1.13Z"/><path class="cls-1" d="M40.76,138.42a2.51,2.51,0,0,1-2-.77,3.3,3.3,0,0,1-.7-2.24v-.83a3.9,3.9,0,0,1,.67-2.41,2.21,2.21,0,0,1,1.87-.88,2.12,2.12,0,0,1,1.8.77,3.87,3.87,0,0,1,.61,2.39v.74H39.21v.16a2.5,2.5,0,0,0,.42,1.61,1.46,1.46,0,0,0,1.19.5,2,2,0,0,0,.87-.19,2,2,0,0,0,.71-.59l.59.71A2.57,2.57,0,0,1,40.76,138.42Zm-.13-6.16a1.17,1.17,0,0,0-1,.48,2.78,2.78,0,0,0-.38,1.49h2.7v-.16a2.66,2.66,0,0,0-.35-1.39A1.1,1.1,0,0,0,40.63,132.26Z"/><path class="cls-1" d="M49,129.05l2.42,7.54,2.41-7.54h1.5v9.24H54.18v-3.6l.11-3.61-2.42,7.21H51l-2.4-7.18.11,3.58v3.6H47.53v-9.24Z"/><path class="cls-1" d="M59.64,138.42a2.49,2.49,0,0,1-2-.77,3.3,3.3,0,0,1-.7-2.24v-.83a3.84,3.84,0,0,1,.67-2.41,2.2,2.2,0,0,1,1.87-.88,2.15,2.15,0,0,1,1.8.77,3.93,3.93,0,0,1,.61,2.39v.74H58.09v.16a2.5,2.5,0,0,0,.42,1.61,1.49,1.49,0,0,0,1.2.5,2,2,0,0,0,.87-.19,2.13,2.13,0,0,0,.71-.59l.58.71A2.57,2.57,0,0,1,59.64,138.42Zm-.12-6.16a1.19,1.19,0,0,0-1,.48,2.88,2.88,0,0,0-.38,1.49h2.7v-.16a2.57,2.57,0,0,0-.35-1.39A1.07,1.07,0,0,0,59.52,132.26Z"/><path class="cls-1" d="M66.11,132.47a3.91,3.91,0,0,0-.51,0,1.24,1.24,0,0,0-1.2.95v4.91H63.27v-6.87h1.1v.7a1.42,1.42,0,0,1,1.28-.83.93.93,0,0,1,.44.09Z"/><path class="cls-1" d="M69.49,137.46a1.19,1.19,0,0,0,.9-.35,1.49,1.49,0,0,0,.37-1h1.06a2.4,2.4,0,0,1-.7,1.65,2.27,2.27,0,0,1-1.63.65,2.37,2.37,0,0,1-1.94-.81,3.62,3.62,0,0,1-.67-2.39v-.75a3.62,3.62,0,0,1,.67-2.37,2.36,2.36,0,0,1,1.94-.81,2.18,2.18,0,0,1,1.67.67,2.74,2.74,0,0,1,.66,1.82H70.76a1.86,1.86,0,0,0-.37-1.14,1.14,1.14,0,0,0-.9-.38,1.28,1.28,0,0,0-1.11.49,2.87,2.87,0,0,0-.38,1.62v.87a3.08,3.08,0,0,0,.36,1.72A1.31,1.31,0,0,0,69.49,137.46Z"/><path class="cls-1" d="M76.62,137.69a2,2,0,0,1-1.63.73,1.63,1.63,0,0,1-1.41-.65,3.16,3.16,0,0,1-.49-1.87v-4.48h1.12v4.39c0,1.07.32,1.61,1,1.61a1.4,1.4,0,0,0,1.4-.91v-5.09h1.13v6.87H76.64Z"/><path class="cls-1" d="M82.23,132.47a3.75,3.75,0,0,0-.5,0,1.24,1.24,0,0,0-1.21.95v4.91H79.4v-6.87h1.09l0,.7a1.39,1.39,0,0,1,1.27-.83,1,1,0,0,1,.45.09Z"/><path class="cls-1" d="M85.34,136.42l1.26-5h1.19l-2.25,7.84a3,3,0,0,1-.72,1.34,1.43,1.43,0,0,1-1,.46,2.07,2.07,0,0,1-.58-.1v-1l.24,0a1.14,1.14,0,0,0,.77-.23,1.7,1.7,0,0,0,.45-.8l.22-.77-2-6.81h1.23Z"/><path class="cls-1" d="M88.92,137.67a.71.71,0,0,1,.18-.5.67.67,0,0,1,.54-.21.69.69,0,0,1,.55.21.68.68,0,0,1,.19.5.66.66,0,0,1-.19.49.73.73,0,0,1-.55.2.7.7,0,0,1-.54-.2A.69.69,0,0,1,88.92,137.67Zm0-5.6a.67.67,0,0,1,.73-.71.66.66,0,0,1,.73.71.71.71,0,0,1-.18.49.74.74,0,0,1-.55.19.7.7,0,0,1-.54-.19A.67.67,0,0,1,88.92,132.07Z"/><path class="cls-1" d="M100.2,130H97.77v8.25H96.61V130H94.18v-1h6Z"/><path class="cls-1" d="M102.53,132.12a2,2,0,0,1,1.64-.83c1.21,0,1.83.81,1.84,2.43v4.57H104.9v-4.51a1.89,1.89,0,0,0-.27-1.15,1,1,0,0,0-.81-.34,1.15,1.15,0,0,0-.76.28,2,2,0,0,0-.53.73v5H101.4v-9.75h1.13Z"/><path class="cls-1" d="M110.14,138.42a2.51,2.51,0,0,1-2-.77,3.3,3.3,0,0,1-.7-2.24v-.83a3.9,3.9,0,0,1,.67-2.41,2.21,2.21,0,0,1,1.87-.88,2.12,2.12,0,0,1,1.8.77,3.87,3.87,0,0,1,.61,2.39v.74h-3.83v.16A2.5,2.5,0,0,0,109,137a1.46,1.46,0,0,0,1.19.5,2,2,0,0,0,.87-.19,2,2,0,0,0,.71-.59l.59.71A2.57,2.57,0,0,1,110.14,138.42Zm-.13-6.16a1.17,1.17,0,0,0-1,.48,2.78,2.78,0,0,0-.38,1.49h2.7v-.16a2.66,2.66,0,0,0-.35-1.39A1.1,1.1,0,0,0,110,132.26Z"/><path class="cls-1" d="M116.51,134.54a4.22,4.22,0,0,1,.59-2.42,2,2,0,0,1,1.71-.83,1.78,1.78,0,0,1,1.54.8v-3.55h1.12v9.75h-1l-.06-.74a1.75,1.75,0,0,1-1.58.87,2,2,0,0,1-1.67-.83,4,4,0,0,1-.62-2.34Zm1.13.64a3.26,3.26,0,0,0,.34,1.7,1.23,1.23,0,0,0,1.12.54,1.34,1.34,0,0,0,1.25-.84v-3.47a1.37,1.37,0,0,0-1.25-.82,1.24,1.24,0,0,0-1.12.54,3.28,3.28,0,0,0-.34,1.67Z"/><path class="cls-1" d="M125.65,138.42a2.52,2.52,0,0,1-2-.77,3.3,3.3,0,0,1-.69-2.24v-.83a3.84,3.84,0,0,1,.67-2.41,2.2,2.2,0,0,1,1.87-.88,2.15,2.15,0,0,1,1.8.77,3.93,3.93,0,0,1,.61,2.39v.74H124.1v.16a2.5,2.5,0,0,0,.42,1.61,1.49,1.49,0,0,0,1.2.5,2,2,0,0,0,.87-.19,2.13,2.13,0,0,0,.71-.59l.58.71A2.57,2.57,0,0,1,125.65,138.42Zm-.12-6.16a1.18,1.18,0,0,0-1,.48,2.88,2.88,0,0,0-.38,1.49h2.7v-.16a2.57,2.57,0,0,0-.35-1.39A1.08,1.08,0,0,0,125.53,132.26Z"/><path class="cls-1" d="M129.78,138.29v-6h-.9v-.91h.9v-.79a2.48,2.48,0,0,1,.53-1.64,1.81,1.81,0,0,1,1.44-.58,2.29,2.29,0,0,1,.68.1l-.06,1a2.1,2.1,0,0,0-.51-.06c-.64,0-1,.46-1,1.37v.65h1.18v.91H130.9v6Z"/><path class="cls-1" d="M134.7,129.6a.67.67,0,0,1-.16.47.68.68,0,0,1-1,0,.67.67,0,0,1-.16-.47.71.71,0,0,1,.16-.48.68.68,0,0,1,1,0A.77.77,0,0,1,134.7,129.6Zm-.09,8.69h-1.12v-6.87h1.12Z"/><path class="cls-1" d="M137.43,131.42l0,.74a2,2,0,0,1,1.66-.87c1.22,0,1.83.81,1.85,2.43v4.57h-1.12v-4.51a2,2,0,0,0-.26-1.15,1,1,0,0,0-.81-.34,1.15,1.15,0,0,0-.76.28,2,2,0,0,0-.53.73v5h-1.13v-6.87Z"/><path class="cls-1" d="M144,129.6a.72.72,0,0,1-.16.47.6.6,0,0,1-.49.2.56.56,0,0,1-.47-.2.67.67,0,0,1-.16-.47.71.71,0,0,1,.16-.48.56.56,0,0,1,.47-.2.57.57,0,0,1,.48.2A.72.72,0,0,1,144,129.6Zm-.09,8.69h-1.13v-6.87h1.13Z"/><path class="cls-1" d="M147.11,129.76v1.66h1v.91h-1v4.26a1.16,1.16,0,0,0,.14.62.49.49,0,0,0,.45.21,1.42,1.42,0,0,0,.45-.08v.95a2.55,2.55,0,0,1-.78.13,1.17,1.17,0,0,1-1-.48,2.21,2.21,0,0,1-.35-1.35v-4.26H145v-.91H146v-1.66Z"/><path class="cls-1" d="M150.78,129.6a.67.67,0,0,1-.16.47.57.57,0,0,1-.48.2.56.56,0,0,1-.47-.2.67.67,0,0,1-.16-.47.71.71,0,0,1,.16-.48.56.56,0,0,1,.47-.2.6.6,0,0,1,.48.2A.71.71,0,0,1,150.78,129.6Zm-.09,8.69h-1.12v-6.87h1.12Z"/><path class="cls-1" d="M154.41,136.58l1.3-5.16h1.14l-2,6.87H154l-2.07-6.87h1.15Z"/><path class="cls-1" d="M160.39,138.42a2.49,2.49,0,0,1-2-.77,3.3,3.3,0,0,1-.7-2.24v-.83a3.84,3.84,0,0,1,.67-2.41,2.2,2.2,0,0,1,1.87-.88,2.15,2.15,0,0,1,1.8.77,3.93,3.93,0,0,1,.61,2.39v.74h-3.84v.16a2.5,2.5,0,0,0,.42,1.61,1.49,1.49,0,0,0,1.2.5,2,2,0,0,0,.87-.19,2.13,2.13,0,0,0,.71-.59l.58.71A2.57,2.57,0,0,1,160.39,138.42Zm-.12-6.16a1.19,1.19,0,0,0-1,.48,2.88,2.88,0,0,0-.38,1.49h2.7v-.16a2.57,2.57,0,0,0-.35-1.39A1.07,1.07,0,0,0,160.27,132.26Z"/><path class="cls-1" d="M172,135.19a4.1,4.1,0,0,1-.58,2.41,1.94,1.94,0,0,1-1.68.82,1.78,1.78,0,0,1-1.63-.94l-.06.81h-1v-9.75h1.11v3.64a1.77,1.77,0,0,1,1.59-.89,2,2,0,0,1,1.7.8,4.36,4.36,0,0,1,.57,2.42Zm-1.12-.65a3.24,3.24,0,0,0-.34-1.73,1.21,1.21,0,0,0-1.1-.52,1.38,1.38,0,0,0-1.3.94v3.26a1.38,1.38,0,0,0,1.31.93,1.19,1.19,0,0,0,1.09-.53,3.24,3.24,0,0,0,.34-1.66Z"/><path class="cls-1" d="M174.71,129.6a.67.67,0,0,1-.16.47.57.57,0,0,1-.48.2.56.56,0,0,1-.47-.2.67.67,0,0,1-.16-.47.71.71,0,0,1,.16-.48.56.56,0,0,1,.47-.2.6.6,0,0,1,.48.2A.71.71,0,0,1,174.71,129.6Zm-.09,8.69H173.5v-6.87h1.12Z"/><path class="cls-1" d="M176.15,134.54a3.61,3.61,0,0,1,.73-2.37,2.37,2.37,0,0,1,1.92-.88,2.41,2.41,0,0,1,1.92.85,3.55,3.55,0,0,1,.75,2.32v.73a3.54,3.54,0,0,1-.73,2.36,2.37,2.37,0,0,1-1.93.87,2.4,2.4,0,0,1-1.91-.85,3.51,3.51,0,0,1-.75-2.28Zm1.13.65a3,3,0,0,0,.41,1.66,1.29,1.29,0,0,0,1.12.61c1,0,1.5-.72,1.53-2.15v-.77a2.91,2.91,0,0,0-.42-1.67,1.32,1.32,0,0,0-2.23,0,3,3,0,0,0-.41,1.66Z"/><path class="cls-1" d="M182.69,134.54a4.13,4.13,0,0,1,.59-2.42,2,2,0,0,1,1.7-.83,1.77,1.77,0,0,1,1.6.9l0-.77h1v6.93a2.74,2.74,0,0,1-.65,2,2.41,2.41,0,0,1-1.83.68,3.14,3.14,0,0,1-1.14-.25,2.33,2.33,0,0,1-.94-.62l.45-.77a2.15,2.15,0,0,0,1.55.68c.93,0,1.41-.5,1.44-1.53v-.89a1.77,1.77,0,0,1-1.55.81,2,2,0,0,1-1.67-.81,4,4,0,0,1-.62-2.3Zm1.13.64a3.26,3.26,0,0,0,.34,1.7,1.2,1.2,0,0,0,1.11.54,1.35,1.35,0,0,0,1.26-.86v-3.43a1.37,1.37,0,0,0-1.25-.84,1.21,1.21,0,0,0-1.11.54,3.17,3.17,0,0,0-.35,1.67Z"/><path class="cls-1" d="M192.16,132.47a4.06,4.06,0,0,0-.51,0,1.24,1.24,0,0,0-1.21.95v4.91h-1.12v-6.87h1.09l0,.7a1.41,1.41,0,0,1,1.28-.83,1,1,0,0,1,.44.09Z"/><path class="cls-1" d="M196.56,138.29a2.42,2.42,0,0,1-.15-.75,1.8,1.8,0,0,1-1.52.88,1.82,1.82,0,0,1-2-2,2.08,2.08,0,0,1,.71-1.67,2.92,2.92,0,0,1,1.95-.63h.82v-.73a1.16,1.16,0,0,0-.27-.87,1.18,1.18,0,0,0-.83-.26,1.16,1.16,0,0,0-.83.3,1,1,0,0,0-.32.76H193a1.78,1.78,0,0,1,.31-1,2.18,2.18,0,0,1,.84-.75,2.41,2.41,0,0,1,1.17-.28,2.25,2.25,0,0,1,1.61.53,2.08,2.08,0,0,1,.56,1.52v3.47a4.09,4.09,0,0,0,.21,1.38v.1Zm-1.5-.9a1.46,1.46,0,0,0,.78-.22,1.45,1.45,0,0,0,.55-.58V135h-.63a2,2,0,0,0-1.27.36,1.12,1.12,0,0,0-.46,1,1.31,1.31,0,0,0,.23.85A1,1,0,0,0,195.06,137.39Z"/><path class="cls-1" d="M204.21,135.19a4.07,4.07,0,0,1-.59,2.43,1.94,1.94,0,0,1-1.66.8,1.82,1.82,0,0,1-1.59-.79v3.3h-1.12v-9.51h1l.06.76a1.8,1.8,0,0,1,1.61-.89,1.94,1.94,0,0,1,1.69.79,4.1,4.1,0,0,1,.58,2.36Zm-1.12-.65a3.15,3.15,0,0,0-.35-1.7,1.26,1.26,0,0,0-1.14-.55,1.33,1.33,0,0,0-1.23.81v3.57a1.33,1.33,0,0,0,1.24.79,1.25,1.25,0,0,0,1.12-.55,3.13,3.13,0,0,0,.36-1.68Z"/><path class="cls-1" d="M206.78,132.12a2,2,0,0,1,1.64-.83c1.21,0,1.83.81,1.85,2.43v4.57h-1.12v-4.51a1.89,1.89,0,0,0-.27-1.15,1,1,0,0,0-.81-.34,1.11,1.11,0,0,0-.75.28,2.14,2.14,0,0,0-.54.73v5h-1.12v-9.75h1.12Z"/><path class="cls-1" d="M213.81,136.42l1.26-5h1.19L214,139.26a3,3,0,0,1-.72,1.34,1.43,1.43,0,0,1-1,.46,2.07,2.07,0,0,1-.58-.1v-1l.24,0a1.14,1.14,0,0,0,.77-.23,1.7,1.7,0,0,0,.45-.8l.22-.77-2-6.81h1.23Z"/><path class="cls-1" d="M217.59,131.65l-.63-.46a3.55,3.55,0,0,0,.52-1.72v-.93h1.11v.86a3.31,3.31,0,0,1-.28,1.23A2.76,2.76,0,0,1,217.59,131.65Z"/><path class="cls-1" d="M222.93,134.54a10.62,10.62,0,0,1,.45-3.13,8.25,8.25,0,0,1,1.28-2.57,4.07,4.07,0,0,1,1-1l.22.77a5.49,5.49,0,0,0-1.25,2.2,11.42,11.42,0,0,0-.53,3.27v.51a11.41,11.41,0,0,0,.63,3.95,5.65,5.65,0,0,0,1.16,2l-.22.72a4.74,4.74,0,0,1-1.19-1.29A9.64,9.64,0,0,1,222.93,134.54Z"/><path class="cls-1" d="M231.5,135.87h-3.12l-.72,2.42h-1.19l3-9.24h1l3,9.24h-1.19Zm-2.82-1h2.52l-1.26-4.2Z"/><path class="cls-1" d="M235.73,138.29h-1.12v-9.75h1.12Z"/><path class="cls-1" d="M238.8,129.6a.67.67,0,0,1-.16.47.68.68,0,0,1-1,0,.72.72,0,0,1-.16-.47.77.77,0,0,1,.16-.48.68.68,0,0,1,1,0A.71.71,0,0,1,238.8,129.6Zm-.09,8.69h-1.12v-6.87h1.12Z"/><path class="cls-1" d="M244,138.29a2.42,2.42,0,0,1-.15-.75,1.78,1.78,0,0,1-1.52.88,2,2,0,0,1-1.46-.53,2,2,0,0,1-.52-1.47,2.11,2.11,0,0,1,.71-1.67,3,3,0,0,1,2-.63h.83v-.73a1.16,1.16,0,0,0-.28-.87,1.18,1.18,0,0,0-.83-.26,1.13,1.13,0,0,0-.82.3,1,1,0,0,0-.32.76h-1.12a1.78,1.78,0,0,1,.31-1,2.08,2.08,0,0,1,.83-.75,2.48,2.48,0,0,1,1.18-.28,2.22,2.22,0,0,1,1.6.53,2,2,0,0,1,.56,1.52v3.47a4.34,4.34,0,0,0,.22,1.38v.1Zm-1.5-.9a1.5,1.5,0,0,0,.79-.22,1.52,1.52,0,0,0,.55-.58V135h-.64a2,2,0,0,0-1.26.36,1.13,1.13,0,0,0-.47,1,1.25,1.25,0,0,0,.24.85A1,1,0,0,0,242.51,137.39Z"/><path class="cls-1" d="M247.76,131.42l0,.74a2,2,0,0,1,1.67-.87c1.22,0,1.83.81,1.85,2.43v4.57h-1.12v-4.51a1.89,1.89,0,0,0-.27-1.15,1,1,0,0,0-.81-.34,1.11,1.11,0,0,0-.75.28,2,2,0,0,0-.53.73v5H246.7v-6.87Z"/><path class="cls-1" d="M254,137.33h3.32v1h-4.6v-.86l3.15-5h-3.12v-1h4.44v.83Z"/><path class="cls-1" d="M262.23,138.29a2.84,2.84,0,0,1-.14-.75,1.8,1.8,0,0,1-1.52.88,2,2,0,0,1-1.46-.53,2,2,0,0,1-.53-1.47,2.09,2.09,0,0,1,.72-1.67,2.91,2.91,0,0,1,1.94-.63h.83v-.73a1.16,1.16,0,0,0-.27-.87,1.2,1.2,0,0,0-.83-.26,1.16,1.16,0,0,0-.83.3,1,1,0,0,0-.32.76H258.7a1.78,1.78,0,0,1,.31-1,2.18,2.18,0,0,1,.84-.75,2.41,2.41,0,0,1,1.17-.28,2.2,2.2,0,0,1,1.6.53,2,2,0,0,1,.57,1.52v3.47a4.09,4.09,0,0,0,.21,1.38v.1Zm-1.49-.9a1.49,1.49,0,0,0,.78-.22,1.45,1.45,0,0,0,.55-.58V135h-.63a2,2,0,0,0-1.27.36,1.12,1.12,0,0,0-.46,1,1.31,1.31,0,0,0,.23.85A1,1,0,0,0,260.74,137.39Z"/><path class="cls-1" d="M272.49,134h-3.27v3.27H273v1h-5v-9.24H273v1h-3.75v3h3.27Z"/><path class="cls-1" d="M274,134.54a4.14,4.14,0,0,1,.6-2.42,2,2,0,0,1,1.7-.83,1.78,1.78,0,0,1,1.54.8v-3.55H279v9.75h-1l-.05-.74a1.78,1.78,0,0,1-1.59.87,2,2,0,0,1-1.67-.83,4,4,0,0,1-.62-2.34Zm1.13.64a3.26,3.26,0,0,0,.34,1.7,1.23,1.23,0,0,0,1.12.54,1.33,1.33,0,0,0,1.25-.84v-3.47a1.37,1.37,0,0,0-1.25-.82,1.21,1.21,0,0,0-1.11.54,3.17,3.17,0,0,0-.35,1.67Z"/><path class="cls-1" d="M282,129.6a.67.67,0,0,1-.16.47.68.68,0,0,1-1,0,.72.72,0,0,1-.16-.47.77.77,0,0,1,.16-.48.68.68,0,0,1,1,0A.77.77,0,0,1,282,129.6Zm-.09,8.69h-1.12v-6.87h1.12Z"/><path class="cls-1" d="M285.14,129.76v1.66h1v.91h-1v4.26a1.17,1.17,0,0,0,.13.62.5.5,0,0,0,.46.21,1.42,1.42,0,0,0,.45-.08v.95a2.67,2.67,0,0,1-.79.13,1.17,1.17,0,0,1-1-.48,2.28,2.28,0,0,1-.35-1.35v-4.26h-1v-.91h1v-1.66Z"/><path class="cls-1" d="M287.14,134.54a3.61,3.61,0,0,1,.73-2.37,2.35,2.35,0,0,1,1.92-.88,2.41,2.41,0,0,1,1.92.85,3.6,3.6,0,0,1,.75,2.32v.73a3.6,3.6,0,0,1-.73,2.36,2.37,2.37,0,0,1-1.93.87,2.4,2.4,0,0,1-1.91-.85,3.51,3.51,0,0,1-.75-2.28Zm1.13.65a3,3,0,0,0,.41,1.66,1.29,1.29,0,0,0,1.12.61c1,0,1.5-.72,1.53-2.15v-.77a2.91,2.91,0,0,0-.42-1.67,1.32,1.32,0,0,0-2.23,0,3,3,0,0,0-.41,1.66Z"/><path class="cls-1" d="M296.74,132.47a3.91,3.91,0,0,0-.51,0,1.24,1.24,0,0,0-1.2.95v4.91H293.9v-6.87H295v.7a1.41,1.41,0,0,1,1.28-.83.93.93,0,0,1,.44.09Z"/><path class="cls-1" d="M299.16,129.6a.67.67,0,0,1-.16.47.68.68,0,0,1-1,0,.72.72,0,0,1-.16-.47.77.77,0,0,1,.16-.48.68.68,0,0,1,1,0A.77.77,0,0,1,299.16,129.6Zm-.09,8.69H298v-6.87h1.12Z"/><path class="cls-1" d="M304.37,138.29a2.42,2.42,0,0,1-.15-.75,1.78,1.78,0,0,1-1.52.88,2,2,0,0,1-1.46-.53,2,2,0,0,1-.52-1.47,2.11,2.11,0,0,1,.71-1.67,3,3,0,0,1,1.95-.63h.83v-.73a1.16,1.16,0,0,0-.28-.87,1.18,1.18,0,0,0-.83-.26,1.13,1.13,0,0,0-.82.3,1,1,0,0,0-.32.76h-1.13a1.8,1.8,0,0,1,.32-1,2.08,2.08,0,0,1,.83-.75,2.45,2.45,0,0,1,1.18-.28,2.22,2.22,0,0,1,1.6.53,2,2,0,0,1,.56,1.52v3.47a4.34,4.34,0,0,0,.22,1.38v.1Zm-1.5-.9a1.5,1.5,0,0,0,.79-.22,1.52,1.52,0,0,0,.55-.58V135h-.64a2,2,0,0,0-1.26.36,1.13,1.13,0,0,0-.47,1,1.25,1.25,0,0,0,.24.85A1,1,0,0,0,302.87,137.39Z"/><path class="cls-1" d="M308.27,138.29h-1.12v-9.75h1.12Z"/><path class="cls-1" d="M312.46,134.6a9.82,9.82,0,0,1-1.27,5,5,5,0,0,1-1.42,1.66l-.23-.72a5.28,5.28,0,0,0,1.29-2.34,11.48,11.48,0,0,0,.5-3.46v-.22a11.13,11.13,0,0,0-.79-4.32,5.11,5.11,0,0,0-1-1.63l.23-.72a5,5,0,0,1,1.35,1.54A9.86,9.86,0,0,1,312.46,134.6Z"/><path class="cls-1" d="M314.19,140.13l-.67-.46a3.05,3.05,0,0,0,.63-1.71V136.9h1.14v.92a2.87,2.87,0,0,1-.31,1.28A3,3,0,0,1,314.19,140.13Z"/><path class="cls-1" d="M4.39,155.29v-6H3.5v-.91h.89v-.79A2.53,2.53,0,0,1,4.92,146a1.83,1.83,0,0,1,1.45-.58,2.33,2.33,0,0,1,.68.1l-.06,1a2.1,2.1,0,0,0-.51-.06c-.64,0-1,.46-1,1.37v.65H6.69v.91H5.52v6Z"/><path class="cls-1" d="M10.85,149.47a4.06,4.06,0,0,0-.51,0,1.25,1.25,0,0,0-1.21.95v4.91H8v-6.87H9.1l0,.7a1.41,1.41,0,0,1,1.28-.83,1,1,0,0,1,.44.09Z"/><path class="cls-1" d="M14.3,155.42a2.52,2.52,0,0,1-2-.77,3.3,3.3,0,0,1-.69-2.24v-.83a3.84,3.84,0,0,1,.67-2.41,2.19,2.19,0,0,1,1.86-.88,2.16,2.16,0,0,1,1.81.77,3.93,3.93,0,0,1,.61,2.39v.74H12.75v.16a2.5,2.5,0,0,0,.42,1.61,1.48,1.48,0,0,0,1.2.5,2,2,0,0,0,.87-.19,2.13,2.13,0,0,0,.71-.59l.58.71A2.57,2.57,0,0,1,14.3,155.42Zm-.13-6.16a1.17,1.17,0,0,0-1,.48,2.88,2.88,0,0,0-.38,1.49h2.7v-.16a2.57,2.57,0,0,0-.35-1.39A1.08,1.08,0,0,0,14.17,149.26Z"/><path class="cls-1" d="M17.7,151.54a4.22,4.22,0,0,1,.59-2.42,2,2,0,0,1,1.71-.83,1.77,1.77,0,0,1,1.53.8v-3.55h1.13v9.75h-1l-.06-.74a1.77,1.77,0,0,1-1.58.87,2,2,0,0,1-1.67-.83,4,4,0,0,1-.62-2.34Zm1.12.64a3.36,3.36,0,0,0,.34,1.7,1.24,1.24,0,0,0,1.12.54,1.32,1.32,0,0,0,1.25-.84v-3.47a1.36,1.36,0,0,0-1.24-.82,1.23,1.23,0,0,0-1.12.54,3.27,3.27,0,0,0-.35,1.67Z"/><path class="cls-1" d="M24.15,151.54a4.14,4.14,0,0,1,.59-2.42,2,2,0,0,1,1.7-.83,1.78,1.78,0,0,1,1.54.8v-3.55H29.1v9.75h-1l-.06-.74a1.77,1.77,0,0,1-1.58.87,2,2,0,0,1-1.67-.83,4,4,0,0,1-.62-2.34Zm1.12.64a3.26,3.26,0,0,0,.34,1.7,1.23,1.23,0,0,0,1.12.54,1.32,1.32,0,0,0,1.25-.84v-3.47a1.36,1.36,0,0,0-1.24-.82,1.23,1.23,0,0,0-1.12.54,3.17,3.17,0,0,0-.35,1.67Z"/><path class="cls-1" d="M32.13,146.6a.67.67,0,0,1-.16.47.57.57,0,0,1-.48.2.56.56,0,0,1-.47-.2.67.67,0,0,1-.16-.47.71.71,0,0,1,.16-.48.56.56,0,0,1,.47-.2.6.6,0,0,1,.48.2A.71.71,0,0,1,32.13,146.6ZM32,155.29H30.92v-6.87H32Z"/><path class="cls-1" d="M36.26,155.42a2.49,2.49,0,0,1-2-.77,3.3,3.3,0,0,1-.7-2.24v-.83a3.84,3.84,0,0,1,.67-2.41,2.2,2.2,0,0,1,1.87-.88,2.15,2.15,0,0,1,1.8.77,3.93,3.93,0,0,1,.61,2.39v.74H34.72v.16a2.51,2.51,0,0,0,.41,1.61,1.49,1.49,0,0,0,1.2.5,2,2,0,0,0,.87-.19,2.13,2.13,0,0,0,.71-.59l.58.71A2.56,2.56,0,0,1,36.26,155.42Zm-.12-6.16a1.19,1.19,0,0,0-1,.48,2.88,2.88,0,0,0-.38,1.49h2.71v-.16a2.56,2.56,0,0,0-.36-1.39A1.07,1.07,0,0,0,36.14,149.26Z"/><path class="cls-1" d="M41,148.42l0,.64a2,2,0,0,1,1.66-.77,1.63,1.63,0,0,1,1.6,1,2.07,2.07,0,0,1,1.81-1c1.26,0,1.91.79,1.94,2.37v4.63H46.87v-4.52a1.91,1.91,0,0,0-.27-1.12,1,1,0,0,0-.9-.36,1,1,0,0,0-.82.39,1.81,1.81,0,0,0-.37,1v4.6H43.38v-4.57c0-.95-.4-1.43-1.16-1.43a1.21,1.21,0,0,0-1.2.85v5.15H39.9v-6.87Z"/><path class="cls-1" d="M52.13,155.42a2.49,2.49,0,0,1-2-.77,3.3,3.3,0,0,1-.7-2.24v-.83a3.84,3.84,0,0,1,.67-2.41,2.2,2.2,0,0,1,1.87-.88,2.15,2.15,0,0,1,1.8.77,3.93,3.93,0,0,1,.61,2.39v.74H50.58v.16A2.5,2.5,0,0,0,51,154a1.49,1.49,0,0,0,1.2.5,2,2,0,0,0,.87-.19,2.13,2.13,0,0,0,.71-.59l.58.71A2.56,2.56,0,0,1,52.13,155.42ZM52,149.26a1.19,1.19,0,0,0-1,.48,2.88,2.88,0,0,0-.38,1.49H53.3v-.16a2.56,2.56,0,0,0-.36-1.39A1.07,1.07,0,0,0,52,149.26Z"/><path class="cls-1" d="M58.6,149.47a3.77,3.77,0,0,0-.51,0,1.24,1.24,0,0,0-1.2.95v4.91H55.76v-6.87h1.1l0,.7a1.39,1.39,0,0,1,1.27-.83,1,1,0,0,1,.45.09Z"/><path class="cls-1" d="M62,154.46a1.18,1.18,0,0,0,.89-.35,1.49,1.49,0,0,0,.37-1h1.06a2.4,2.4,0,0,1-.7,1.65,2.25,2.25,0,0,1-1.62.65,2.38,2.38,0,0,1-2-.81,3.62,3.62,0,0,1-.67-2.39v-.75A3.62,3.62,0,0,1,60,149.1a2.36,2.36,0,0,1,1.94-.81,2.18,2.18,0,0,1,1.67.67,2.74,2.74,0,0,1,.66,1.82H63.25a1.86,1.86,0,0,0-.37-1.14,1.13,1.13,0,0,0-.9-.38,1.28,1.28,0,0,0-1.11.49,2.87,2.87,0,0,0-.38,1.62v.87a3.08,3.08,0,0,0,.36,1.72A1.32,1.32,0,0,0,62,154.46Z"/><path class="cls-1" d="M69.11,154.69a2,2,0,0,1-1.63.73,1.63,1.63,0,0,1-1.41-.65,3.16,3.16,0,0,1-.49-1.87v-4.48H66.7v4.39c0,1.07.32,1.61,1,1.61a1.42,1.42,0,0,0,1.41-.91v-5.09H70.2v6.87H69.13Z"/><path class="cls-1" d="M74.73,149.47a4.06,4.06,0,0,0-.51,0,1.24,1.24,0,0,0-1.21.95v4.91H71.89v-6.87H73l0,.7a1.39,1.39,0,0,1,1.27-.83,1,1,0,0,1,.45.09Z"/><path class="cls-1" d="M77.84,153.42l1.25-5h1.19L78,156.26a3,3,0,0,1-.72,1.34,1.43,1.43,0,0,1-1,.46,2.07,2.07,0,0,1-.58-.1v-1l.24,0a1.13,1.13,0,0,0,.77-.23,1.7,1.7,0,0,0,.45-.8l.22-.77-2-6.81h1.23Z"/><path class="cls-1" d="M80.77,154.67a.71.71,0,0,1,.18-.5.67.67,0,0,1,.54-.21.69.69,0,0,1,.55.21.68.68,0,0,1,.19.5.66.66,0,0,1-.19.49.73.73,0,0,1-.55.2.7.7,0,0,1-.54-.2A.69.69,0,0,1,80.77,154.67Z"/><path class="cls-1" d="M86.5,154.46a1.22,1.22,0,0,0,.9-.35,1.48,1.48,0,0,0,.36-1h1.06a2.35,2.35,0,0,1-.7,1.65,2.23,2.23,0,0,1-1.62.65,2.39,2.39,0,0,1-2-.81,3.68,3.68,0,0,1-.67-2.39v-.75a3.68,3.68,0,0,1,.67-2.37,2.37,2.37,0,0,1,1.94-.81,2.21,2.21,0,0,1,1.68.67,2.68,2.68,0,0,1,.65,1.82H87.76a1.8,1.8,0,0,0-.36-1.14,1.15,1.15,0,0,0-.91-.38,1.28,1.28,0,0,0-1.11.49,2.88,2.88,0,0,0-.37,1.62v.87a3.08,3.08,0,0,0,.36,1.72A1.3,1.3,0,0,0,86.5,154.46Z"/><path class="cls-1" d="M89.88,151.54a3.61,3.61,0,0,1,.73-2.37,2.35,2.35,0,0,1,1.92-.88,2.41,2.41,0,0,1,1.92.85,3.55,3.55,0,0,1,.75,2.32v.73a3.54,3.54,0,0,1-.73,2.36,2.37,2.37,0,0,1-1.93.87,2.4,2.4,0,0,1-1.91-.85,3.51,3.51,0,0,1-.75-2.28Zm1.13.65a3,3,0,0,0,.41,1.66,1.29,1.29,0,0,0,1.12.61c1,0,1.5-.72,1.53-2.15v-.77a2.91,2.91,0,0,0-.42-1.67,1.32,1.32,0,0,0-2.23,0,3,3,0,0,0-.41,1.66Z"/><path class="cls-1" d="M97.7,148.42l0,.64a2,2,0,0,1,1.66-.77,1.63,1.63,0,0,1,1.6,1,2,2,0,0,1,1.8-1q1.9,0,1.95,2.37v4.63h-1.12v-4.52a1.91,1.91,0,0,0-.27-1.12,1,1,0,0,0-.9-.36,1,1,0,0,0-.82.39,1.81,1.81,0,0,0-.37,1v4.6h-1.13v-4.57c0-.95-.4-1.43-1.16-1.43a1.21,1.21,0,0,0-1.2.85v5.15H96.65v-6.87Z"/><path class="cls-1" d="M106.44,157.13l-.67-.46a3,3,0,0,0,.62-1.71V153.9h1.15v.92a2.87,2.87,0,0,1-.31,1.28A3,3,0,0,1,106.44,157.13Z"/><path class="cls-1" d="M111.72,151.54a4.14,4.14,0,0,1,.58-2.42,2,2,0,0,1,1.74-.83,1.78,1.78,0,0,1,1.55.8l0-.67h1v9.51h-1.12v-3.24a1.81,1.81,0,0,1-1.51.73,2,2,0,0,1-1.71-.81,4,4,0,0,1-.61-2.36Zm1.12.65a3.23,3.23,0,0,0,.36,1.71,1.25,1.25,0,0,0,1.13.56,1.36,1.36,0,0,0,1.22-.76V150a1.38,1.38,0,0,0-1.22-.76,1.26,1.26,0,0,0-1.13.56,3.33,3.33,0,0,0-.36,1.68Z"/><path class="cls-1" d="M122,154.69a1.93,1.93,0,0,1-1.63.73,1.65,1.65,0,0,1-1.41-.65,3.24,3.24,0,0,1-.48-1.87v-4.48h1.12v4.39c0,1.07.32,1.61,1,1.61a1.42,1.42,0,0,0,1.41-.91v-5.09h1.13v6.87H122Z"/><path class="cls-1" d="M127.2,155.42a2.52,2.52,0,0,1-2-.77,3.3,3.3,0,0,1-.69-2.24v-.83a3.9,3.9,0,0,1,.66-2.41,2.21,2.21,0,0,1,1.87-.88,2.16,2.16,0,0,1,1.81.77,4,4,0,0,1,.61,2.39v.74h-3.84v.16a2.5,2.5,0,0,0,.42,1.61,1.47,1.47,0,0,0,1.19.5,2,2,0,0,0,.88-.19,2.23,2.23,0,0,0,.71-.59l.58.71A2.57,2.57,0,0,1,127.2,155.42Zm-.13-6.16a1.17,1.17,0,0,0-1,.48,2.88,2.88,0,0,0-.38,1.49h2.7v-.16a2.57,2.57,0,0,0-.35-1.39A1.08,1.08,0,0,0,127.07,149.26Z"/><path class="cls-1" d="M133.29,155.42a2.51,2.51,0,0,1-2-.77,3.3,3.3,0,0,1-.7-2.24v-.83a3.9,3.9,0,0,1,.67-2.41,2.21,2.21,0,0,1,1.87-.88,2.12,2.12,0,0,1,1.8.77,3.87,3.87,0,0,1,.61,2.39v.74h-3.83v.16a2.5,2.5,0,0,0,.42,1.61,1.46,1.46,0,0,0,1.19.5,2,2,0,0,0,.87-.19,2,2,0,0,0,.71-.59l.59.71A2.57,2.57,0,0,1,133.29,155.42Zm-.13-6.16a1.17,1.17,0,0,0-1,.48,2.78,2.78,0,0,0-.38,1.49h2.7v-.16a2.66,2.66,0,0,0-.35-1.39A1.1,1.1,0,0,0,133.16,149.26Z"/><path class="cls-1" d="M138,148.42l0,.74a2,2,0,0,1,1.67-.87c1.22,0,1.83.81,1.85,2.43v4.57h-1.12v-4.51a1.89,1.89,0,0,0-.27-1.15,1,1,0,0,0-.81-.34,1.11,1.11,0,0,0-.75.28,2.14,2.14,0,0,0-.54.73v5h-1.12v-6.87Z"/><path class="cls-1" d="M143,151.54a3.61,3.61,0,0,1,.72-2.37,2.37,2.37,0,0,1,1.92-.88,2.41,2.41,0,0,1,1.92.85,3.49,3.49,0,0,1,.75,2.32v.73a3.54,3.54,0,0,1-.73,2.36,2.37,2.37,0,0,1-1.93.87,2.4,2.4,0,0,1-1.91-.85,3.45,3.45,0,0,1-.74-2.28Zm1.12.65a3,3,0,0,0,.41,1.66,1.3,1.3,0,0,0,1.12.61c1,0,1.5-.72,1.53-2.15v-.77a3,3,0,0,0-.41-1.67,1.3,1.3,0,0,0-1.13-.61,1.28,1.28,0,0,0-1.11.61,3,3,0,0,0-.41,1.66Z"/><path class="cls-1" d="M150.8,148.42l0,.74a2,2,0,0,1,1.67-.87c1.21,0,1.83.81,1.84,2.43v4.57h-1.11v-4.51a1.89,1.89,0,0,0-.27-1.15,1,1,0,0,0-.81-.34,1.11,1.11,0,0,0-.75.28,1.91,1.91,0,0,0-.54.73v5h-1.12v-6.87Z"/><path class="cls-1" d="M157.24,155.29h-1.13v-9.75h1.13Z"/><path class="cls-1" d="M160.3,146.6a.72.72,0,0,1-.15.47.6.6,0,0,1-.49.2.56.56,0,0,1-.47-.2.67.67,0,0,1-.16-.47.71.71,0,0,1,.16-.48.56.56,0,0,1,.47-.2.6.6,0,0,1,.48.2A.71.71,0,0,1,160.3,146.6Zm-.08,8.69h-1.13v-6.87h1.13Z"/><path class="cls-1" d="M163,148.42l0,.74a2,2,0,0,1,1.67-.87c1.22,0,1.83.81,1.85,2.43v4.57h-1.12v-4.51a1.89,1.89,0,0,0-.27-1.15,1,1,0,0,0-.81-.34,1.11,1.11,0,0,0-.75.28,2.14,2.14,0,0,0-.54.73v5H162v-6.87Z"/><path class="cls-1" d="M170.73,155.42a2.51,2.51,0,0,1-2-.77,3.3,3.3,0,0,1-.7-2.24v-.83a3.84,3.84,0,0,1,.67-2.41,2.21,2.21,0,0,1,1.87-.88,2.15,2.15,0,0,1,1.8.77,3.93,3.93,0,0,1,.61,2.39v.74h-3.83v.16a2.57,2.57,0,0,0,.41,1.61,1.49,1.49,0,0,0,1.2.5,2,2,0,0,0,.87-.19,2,2,0,0,0,.71-.59l.59.71A2.57,2.57,0,0,1,170.73,155.42Zm-.13-6.16a1.16,1.16,0,0,0-1,.48,2.78,2.78,0,0,0-.39,1.49h2.71v-.16a2.66,2.66,0,0,0-.35-1.39A1.1,1.1,0,0,0,170.6,149.26Z"/><path class="cls-1" d="M174.43,154.67a.73.73,0,1,1,1.46,0,.69.69,0,0,1-.18.49.86.86,0,0,1-1.1,0A.69.69,0,0,1,174.43,154.67Z"/><path class="cls-1" d="M180.17,154.46a1.18,1.18,0,0,0,.89-.35,1.44,1.44,0,0,0,.37-1h1.06a2.4,2.4,0,0,1-.7,1.65,2.23,2.23,0,0,1-1.62.65,2.39,2.39,0,0,1-1.95-.81,3.62,3.62,0,0,1-.67-2.39v-.75a3.62,3.62,0,0,1,.67-2.37,2.36,2.36,0,0,1,1.94-.81,2.18,2.18,0,0,1,1.67.67,2.69,2.69,0,0,1,.66,1.82h-1.06a1.86,1.86,0,0,0-.37-1.14,1.13,1.13,0,0,0-.9-.38,1.28,1.28,0,0,0-1.11.49,2.87,2.87,0,0,0-.38,1.62v.87A3.08,3.08,0,0,0,179,154,1.32,1.32,0,0,0,180.17,154.46Z"/><path class="cls-1" d="M183.55,151.54a3.55,3.55,0,0,1,.73-2.37,2.35,2.35,0,0,1,1.92-.88,2.44,2.44,0,0,1,1.92.85,3.54,3.54,0,0,1,.74,2.32v.73a3.6,3.6,0,0,1-.72,2.36,2.39,2.39,0,0,1-1.93.87,2.42,2.42,0,0,1-1.92-.85,3.5,3.5,0,0,1-.74-2.28Zm1.12.65a2.87,2.87,0,0,0,.42,1.66,1.29,1.29,0,0,0,1.12.61c1,0,1.5-.72,1.53-2.15v-.77a2.91,2.91,0,0,0-.42-1.67,1.29,1.29,0,0,0-1.12-.61,1.27,1.27,0,0,0-1.11.61,2.89,2.89,0,0,0-.42,1.66Z"/><path class="cls-1" d="M191.37,148.42l0,.64a2,2,0,0,1,1.65-.77,1.64,1.64,0,0,1,1.61,1,2,2,0,0,1,1.8-1c1.27,0,1.91.79,1.94,2.37v4.63h-1.11v-4.52a1.91,1.91,0,0,0-.27-1.12,1.05,1.05,0,0,0-.9-.36,1,1,0,0,0-.83.39,1.89,1.89,0,0,0-.37,1v4.6h-1.13v-4.57c0-.95-.4-1.43-1.16-1.43a1.23,1.23,0,0,0-1.2.85v5.15h-1.11v-6.87Z"/><path class="cls-1" d="M205,153.42l1.25-5h1.19l-2.25,7.84a3,3,0,0,1-.71,1.34,1.45,1.45,0,0,1-1.06.46,2.13,2.13,0,0,1-.58-.1v-1l.25,0a1.11,1.11,0,0,0,.76-.23,1.62,1.62,0,0,0,.45-.8l.22-.77-2-6.81h1.23Z"/><path class="cls-1" d="M217.4,154.14l-.2.25a3.21,3.21,0,0,1-2.57,1,3,3,0,0,1-2.35-1,4.23,4.23,0,0,1-.87-2.81V149.8a4.55,4.55,0,0,1,.78-2.91,2.79,2.79,0,0,1,2.32-1,2.83,2.83,0,0,1,2.07.73,3.05,3.05,0,0,1,.82,2.1h-1.16a2.42,2.42,0,0,0-.48-1.35,1.54,1.54,0,0,0-1.24-.48,1.65,1.65,0,0,0-1.46.65,3.68,3.68,0,0,0-.48,2.08v1.88a3.6,3.6,0,0,0,.53,2.14,1.77,1.77,0,0,0,1.53.75,2,2,0,0,0,1.43-.46l.17-.15v-2.13h-1.69v-1h2.85Z"/><path class="cls-1" d="M221.6,155.42a2.51,2.51,0,0,1-2-.77,3.3,3.3,0,0,1-.7-2.24v-.83a3.84,3.84,0,0,1,.67-2.41,2.21,2.21,0,0,1,1.87-.88,2.14,2.14,0,0,1,1.8.77,3.93,3.93,0,0,1,.61,2.39v.74h-3.83v.16a2.57,2.57,0,0,0,.41,1.61,1.49,1.49,0,0,0,1.2.5,2,2,0,0,0,.87-.19,2,2,0,0,0,.71-.59l.59.71A2.57,2.57,0,0,1,221.6,155.42Zm-.13-6.16a1.16,1.16,0,0,0-1,.48,2.78,2.78,0,0,0-.39,1.49h2.71v-.16a2.66,2.66,0,0,0-.35-1.39A1.1,1.1,0,0,0,221.47,149.26Z"/><path class="cls-1" d="M226.7,146.76v1.66h1v.91h-1v4.26a1.27,1.27,0,0,0,.13.62.51.51,0,0,0,.46.21,1.42,1.42,0,0,0,.45-.08v.95a2.6,2.6,0,0,1-.78.13,1.19,1.19,0,0,1-1-.48,2.28,2.28,0,0,1-.35-1.35v-4.26h-1v-.91h1v-1.66Z"/><path class="cls-1" d="M230.54,146.76v1.66h1v.91h-1v4.26a1.27,1.27,0,0,0,.13.62.51.51,0,0,0,.46.21,1.42,1.42,0,0,0,.45-.08v.95a2.55,2.55,0,0,1-.78.13,1.19,1.19,0,0,1-1-.48,2.28,2.28,0,0,1-.35-1.35v-4.26h-1v-.91h1v-1.66Z"/><path class="cls-1" d="M234.79,153.42l1.25-5h1.19L235,156.26a3,3,0,0,1-.71,1.34,1.45,1.45,0,0,1-1.06.46,2.13,2.13,0,0,1-.58-.1v-1l.25,0a1.11,1.11,0,0,0,.76-.23,1.55,1.55,0,0,0,.45-.8l.22-.77-2-6.81h1.23Z"/><path class="cls-1" d="M242.67,155.29h-1.16v-9.24h1.16Z"/><path class="cls-1" d="M245.61,148.42l0,.64a2,2,0,0,1,1.65-.77,1.64,1.64,0,0,1,1.61,1,2,2,0,0,1,1.8-1c1.27,0,1.91.79,1.94,2.37v4.63h-1.11v-4.52a1.91,1.91,0,0,0-.27-1.12,1.05,1.05,0,0,0-.9-.36,1,1,0,0,0-.83.39,1.81,1.81,0,0,0-.36,1v4.6H248v-4.57c0-.95-.4-1.43-1.17-1.43a1.23,1.23,0,0,0-1.2.85v5.15h-1.11v-6.87Z"/><path class="cls-1" d="M257.87,155.29a2.42,2.42,0,0,1-.15-.75,1.79,1.79,0,0,1-1.52.88,1.82,1.82,0,0,1-2-2,2.08,2.08,0,0,1,.71-1.67,2.92,2.92,0,0,1,1.95-.63h.82v-.73a1.16,1.16,0,0,0-.27-.87,1.18,1.18,0,0,0-.83-.26,1.16,1.16,0,0,0-.83.3,1,1,0,0,0-.31.76h-1.13a1.86,1.86,0,0,1,.31-1,2.18,2.18,0,0,1,.84-.75,2.42,2.42,0,0,1,1.18-.28,2.24,2.24,0,0,1,1.6.53,2.08,2.08,0,0,1,.56,1.52v3.47a4.08,4.08,0,0,0,.22,1.38v.1Zm-1.5-.9a1.52,1.52,0,0,0,.79-.22,1.42,1.42,0,0,0,.54-.58V152h-.63a2,2,0,0,0-1.27.36,1.15,1.15,0,0,0-.46,1,1.25,1.25,0,0,0,.24.85A1,1,0,0,0,256.37,154.39Z"/><path class="cls-1" d="M260.34,151.54a4.14,4.14,0,0,1,.58-2.42,2,2,0,0,1,1.71-.83,1.74,1.74,0,0,1,1.59.9l.06-.77h1v6.93a2.7,2.7,0,0,1-.65,2,2.38,2.38,0,0,1-1.82.68,3.06,3.06,0,0,1-1.14-.25,2.38,2.38,0,0,1-.95-.62l.46-.77a2.13,2.13,0,0,0,1.54.68c.94,0,1.42-.5,1.44-1.53v-.89a1.76,1.76,0,0,1-1.55.81,2,2,0,0,1-1.66-.81,3.84,3.84,0,0,1-.62-2.3Zm1.12.64a3.26,3.26,0,0,0,.34,1.7,1.22,1.22,0,0,0,1.11.54,1.35,1.35,0,0,0,1.26-.86v-3.43a1.36,1.36,0,0,0-1.24-.84,1.23,1.23,0,0,0-1.12.54,3.17,3.17,0,0,0-.35,1.67Z"/><path class="cls-1" d="M269.42,155.42a2.52,2.52,0,0,1-2-.77,3.35,3.35,0,0,1-.7-2.24v-.83a3.9,3.9,0,0,1,.67-2.41,2.21,2.21,0,0,1,1.87-.88,2.16,2.16,0,0,1,1.81.77,4,4,0,0,1,.61,2.39v.74h-3.84v.16a2.5,2.5,0,0,0,.42,1.61,1.46,1.46,0,0,0,1.19.5,2.07,2.07,0,0,0,.88-.19,2.1,2.1,0,0,0,.7-.59l.59.71A2.57,2.57,0,0,1,269.42,155.42Zm-.13-6.16a1.17,1.17,0,0,0-1,.48,2.78,2.78,0,0,0-.38,1.49h2.7v-.16a2.57,2.57,0,0,0-.35-1.39A1.1,1.1,0,0,0,269.29,149.26Z"/><path class="cls-1" d="M276.39,153.53a.83.83,0,0,0-.27-.62,4.1,4.1,0,0,0-1.06-.61,7.05,7.05,0,0,1-1.28-.64,1.85,1.85,0,0,1-.55-.61,1.67,1.67,0,0,1-.19-.81,1.79,1.79,0,0,1,.62-1.39,2.24,2.24,0,0,1,1.56-.56,2.22,2.22,0,0,1,1.61.59,2,2,0,0,1,.61,1.5h-1.11a1.12,1.12,0,0,0-.31-.79,1.06,1.06,0,0,0-.8-.33,1.08,1.08,0,0,0-.78.26.89.89,0,0,0-.28.68.74.74,0,0,0,.21.55,3.81,3.81,0,0,0,1,.55,5,5,0,0,1,1.7,1,1.65,1.65,0,0,1,.45,1.19,1.81,1.81,0,0,1-.61,1.43,2.41,2.41,0,0,1-1.65.54,2.45,2.45,0,0,1-1.74-.62,2,2,0,0,1-.67-1.56H274a1.23,1.23,0,0,0,.35.89,1.26,1.26,0,0,0,.93.33,1.32,1.32,0,0,0,.85-.25A.88.88,0,0,0,276.39,153.53Z"/></svg>